<?xml version="1.0" encoding="utf-8"?>
<!-- Generator: Adobe Illustrator 26.0.0, SVG Export Plug-In . SVG Version: 6.00 Build 0)  -->
<svg version="1.1" id="Capa_1" xmlns="http://www.w3.org/2000/svg" xmlns:xlink="http://www.w3.org/1999/xlink" x="0px" y="0px"
	 viewBox="0 0 300 300" style="enable-background:new 0 0 300 300;" xml:space="preserve">
<style type="text/css">
	.st0{fill:#C8516E;}
</style>
<path class="st0" d="M261.9,77.8c-2.4-1.4-4.8-2.8-7.2-4.2c-8.2-4.8-16.9-8.8-25.9-11.9c-1.5-0.5-2.9-0.8-4.4-1.3
	c-0.5-0.2-1.2-0.1-1.6,0.3c-3.3,2.8-6.6,1.4-9.8-0.1c-1-0.5-1.5-1.6-1.3-2.7c0.1-1-0.3-1.5-1.1-1.9c-6.3-3.5-13.1-5.8-20.2-6.9
	c-5.1-0.7-10.3-0.9-15.5-0.5h-0.9c-0.1-1.4-0.3-2.7,0.8-3.8c0.8-0.8,1.4-1.7,2.1-2.7l-1.3-0.2l2.9-2.9l-2.2-0.1l3.2-3.1l-0.2-0.4
	l-2.4-0.1c0.3-0.3,0.5-0.5,0.7-0.7c9-9,18-17.9,27-26.9c1.1-0.9,2.5-1.5,3.9-1.5c8.9-1.5,17.2,0.3,25.1,4.2c3.1,1.5,6,3.4,8.7,5.6
	c0.2,0.2,0.6,0.3,0.9,0.2c3.8-1.9,8-3,12.3-3.4c7.8-1,15.7-0.3,23.2,2c2.9,0.9,5.6,2.1,8.2,3.6l-1.7,2.2l5.3,2.1l-1.6,2l4.9,2
	l-1.2,1.6l6.6,2.7l-1.7,1.9c0.3,0.3,0.9,0.6,0.9,0.8c0,1,0.3,1.9-0.5,2.9c-11.8,13.5-23.6,27-35.4,40.6L261.9,77.8z M283.8,19.1
	c-0.3-0.2-0.5-0.3-0.8-0.4c-2.3-0.9-4.5-1.8-6.9-2.5c-6.8-1.9-14-2.3-21-1.4c-3.4,0.3-6.8,1.2-9.9,2.6c-0.8,0.3-1.6,0.9-2.2,1.5
	c-2.4,2.9-4.8,5.8-7.1,8.8c-5.7,7.3-10.7,15.1-15.1,23.3c-0.1,0.2-0.2,0.4-0.4,0.8c0.3-0.2,0.5-0.2,0.6-0.3c2.7-1.5,5.6-2.5,8.7-2.9
	c6.5-0.9,13.1,0,19.3,2.4c2.7,1,5.2,2.2,7.9,3.4C265.9,42.7,274.8,30.9,283.8,19.1z M241.2,17.8l-0.5-0.4c-4.1-3.4-8.9-6-13.9-7.6
	c-6.2-2.2-12.9-2.6-19.3-1.3c-0.6,0.1-1.1,0.4-1.5,0.8c-7.2,7.2-14.4,14.3-21.6,21.5c-0.9,0.9-1.8,1.8-2.8,2.8
	c1.9,0.2,3.6,0.4,5.2,0.7c7.4,1,14.6,3.4,21.1,7.1c4.2,2.5,7.9,5.5,10.2,9.9c0.1,0.1,0.2,0.2,0.2,0.2
	C224.6,39.2,232.5,28.2,241.2,17.8L241.2,17.8z M295.7,31.8c-1.4-0.5-2.6-1-3.9-1.5c-0.4-0.2-1-0.1-1.2,0.3c0,0,0,0,0,0
	c-1.5,1.9-3,3.7-4.5,5.5l-22.7,27.2c-1.2,1.4-2.4,2.9-3.6,4.4l-1.3-0.9c-0.5-0.3-0.9-0.6-1.4-0.9c-8-4.7-16.9-7.8-26.1-9.2
	c-2.2-0.4-4.5-0.5-6.8-0.1c6.6,0.1,12.8,2.2,18.8,4.6c6.1,2.4,11.9,5.4,17.4,9L295.7,31.8z M258.5,60.2l28.6-36.7
	c-0.9-0.3-1.7-0.6-2.5-1c-0.6-0.3-0.9-0.1-1.3,0.4c-8.4,11.2-16.9,22.3-25.3,33.5c-0.2,0.2-0.4,0.5-0.6,0.7l-0.8-0.5
	c-3.8-2.2-7.9-3.9-12.2-5.1c-5.8-1.7-12-1.8-17.9-0.2c-1.7,0.4-3.3,1.1-4.7,2.2c0.2,0,0.3,0,0.5-0.1c3.2-1,6.5-1.5,9.8-1.4
	c5.9,0.1,11.8,1.4,17.2,3.8C252.4,57.1,255.3,58.7,258.5,60.2z M290.5,27.6c-0.9-0.3-1.7-0.6-2.4-0.9c-0.4-0.2-0.8-0.1-1,0.3
	c0,0,0,0,0,0c-1.3,1.7-2.6,3.2-3.9,4.9c-7.9,10-15.7,20.1-23.6,30.2c-0.3,0.3-0.5,0.7-0.8,1l-2-1.2c-7.3-4.2-14.9-7.2-23.4-7.7
	c-1.9-0.1-3.9,0-5.8,0.1c11.3,1.2,22.1,4.9,31.8,10.7L290.5,27.6z M213.7,54.4c-0.2-0.3-0.4-0.5-0.6-0.7c-2.6-2.8-5.8-5-9.4-6.4
	c-6.8-2.8-14-4.5-21.4-5c-0.2,0-0.5,0-0.7,0.2c-0.7,0.7-1.3,1.4-2,2.3l0.6,0.1c4.6,0.5,9.2,0.9,13.8,1.6c5.3,0.8,10.3,2.5,15,5
	C210.6,52.3,212.1,53.3,213.7,54.4L213.7,54.4z M213,47.7l0.1-0.2c-1.6-1.2-3.1-2.5-4.8-3.6c-7.7-4.9-16.2-7.2-25.1-8.2
	c-1.2-0.1-1.6,0.6-2.2,1.3C192.6,38,203.6,40.5,213,47.7z M180.5,39.7l0.1,0.3c9.8,0.7,19.2,2.5,28,7.1c-0.4-0.3-0.8-0.6-1.3-0.9
	c-1.1-0.6-2.3-1.2-3.4-1.8c-7-3.1-14.4-4.9-22-5.3C181.4,39.2,180.9,39.6,180.5,39.7L180.5,39.7z"/>
<path class="st0" d="M227.1,29l-1,1.4c-4-2.8-8.3-5.1-12.8-6.8c-4.5-1.7-9.4-2.4-14.2-2.1c0.8-1,1.4-1.7,2.7-1.7
	c6.4,0.2,12.6,1.9,18.1,5C222.3,26.1,224.6,27.5,227.1,29z"/>
<path class="st0" d="M203,17.5c0.7-1.2,2-1.8,3.3-1.6c6.9,0.4,13.5,2.5,19.4,6.1c1.8,1,3.4,2.1,5.2,3.2l-0.9,1.3
	C221.9,21,213.3,16.9,203,17.5z"/>
<path class="st0" d="M234.6,20.9l-0.9,1.3c-8.1-5.5-16.9-8.9-26.9-8.3c0.8-1,1.4-1.6,2.6-1.6c8,0.1,15.3,2.6,22.1,6.7
	C232.5,19.5,233.5,20.2,234.6,20.9z"/>
<path class="st0" d="M141.6,117.2c-2.7-0.6-5.4-1.3-8.1-1.9c-9.3-2.2-18.8-3.4-28.3-3.7c-1.5,0-3,0-4.6,0c-0.6,0-1.1,0.3-1.4,0.8
	c-2.3,3.6-5.9,3.3-9.4,2.8c-1.1-0.2-1.9-1.1-2-2.2c-0.2-1-0.7-1.3-1.7-1.5c-7-1.4-14.2-1.7-21.3-0.6c-5.1,0.9-10.1,2.3-15,4.1
	l-0.9,0.3c-0.5-1.3-1-2.4-0.3-3.8c0.5-1,0.9-2.1,1.2-3.2l-1.3,0.2l1.9-3.6l-2.1,0.6l2.2-3.9l-0.3-0.3l-2.3,0.6
	c0.2-0.4,0.3-0.7,0.4-0.9c6-11.2,11.9-22.4,17.8-33.7c0.8-1.2,1.9-2.1,3.3-2.6c8-4,16.5-4.8,25.2-3.5c3.4,0.6,6.8,1.5,10,2.8
	c0.3,0.1,0.6,0.1,0.9-0.1c3.1-2.9,6.7-5.2,10.7-6.8c7.1-3.3,14.9-5,22.8-5c3,0,6,0.4,8.9,1l-0.9,2.6l5.7,0.5l-0.9,2.4L157,59
	l-0.7,1.9l7.1,0.6l-1.1,2.4c0.4,0.2,1,0.3,1.1,0.5c0.3,0.9,0.9,1.8,0.4,2.9c-7.3,16.4-14.5,32.8-21.8,49.2
	C141.9,116.7,141.8,117,141.6,117.2z M145.2,54.6c-0.3-0.1-0.6-0.1-0.9-0.2c-2.4-0.1-4.9-0.4-7.3-0.3c-7.1,0.2-14,1.9-20.4,4.9
	c-3.2,1.3-6.1,3.1-8.7,5.4c-0.7,0.6-1.2,1.3-1.6,2.1c-1.5,3.5-2.9,7-4.2,10.5c-3.3,8.7-5.8,17.6-7.5,26.8c0,0.2,0,0.5-0.1,0.9
	c0.2-0.1,0.3-0.3,0.5-0.5c2.1-2.3,4.6-4.1,7.5-5.4c6-2.8,12.5-3.9,19.1-3.5c2.8,0.2,5.7,0.6,8.6,0.9
	C135.1,82.5,140.1,68.6,145.2,54.6z M104.2,66l-0.6-0.2c-5-2-10.3-3.1-15.6-3.2c-6.6-0.2-13.1,1.3-18.8,4.5
	c-0.5,0.3-0.9,0.7-1.2,1.2c-4.8,9-9.5,18-14.3,27c-0.6,1.1-1.2,2.2-1.9,3.5c1.9-0.3,3.5-0.7,5.2-0.9c7.4-1.2,14.9-1,22.2,0.5
	c4.8,1.1,9.2,2.9,12.7,6.4c0.1,0.1,0.2,0.1,0.3,0.2C94.6,91.3,99,78.6,104.2,66z M160.3,63.2c-1.5-0.1-2.8-0.1-4.1-0.2
	c-0.5-0.1-1,0.2-1.1,0.7c-0.9,2.2-1.8,4.4-2.7,6.7c-4.5,10.9-9.1,21.8-13.6,32.7c-0.7,1.7-1.4,3.5-2.1,5.2c-0.6-0.2-1-0.3-1.5-0.5
	s-1.1-0.3-1.6-0.4c-9.1-2.1-18.5-2.4-27.7-1c-2.3,0.2-4.5,0.9-6.5,1.9c6.4-1.9,12.8-1.7,19.3-1.2c6.5,0.5,13,1.6,19.3,3.4
	L160.3,63.2z M133.2,101.4c5.5-14.4,11-28.9,16.5-43.5c-1-0.1-1.8-0.1-2.7-0.2c-0.6-0.1-0.9,0.2-1.1,0.7
	c-4.8,13.2-9.5,26.3-14.3,39.5c-0.1,0.3-0.2,0.6-0.4,0.9l-0.9-0.2c-4.3-1-8.7-1.4-13.1-1.2c-6.1,0.1-12,1.9-17.2,5.1
	c-1.5,0.9-2.8,2.1-3.8,3.4c0.2-0.1,0.3-0.1,0.4-0.2c2.7-1.9,5.7-3.4,8.9-4.3c5.7-1.6,11.6-2.1,17.5-1.4
	C126.4,100.3,129.7,100.9,133.2,101.4L133.2,101.4z M154.2,60.8c-1,0-1.8-0.1-2.6-0.2c-0.4-0.1-0.8,0.2-0.9,0.5c0,0,0,0,0,0
	c-0.7,1.9-1.5,3.9-2.2,5.8c-4.5,11.9-9.1,23.8-13.6,35.8c-0.1,0.4-0.3,0.8-0.5,1.2l-2.3-0.5c-8.2-1.8-16.4-2.5-24.6-0.4
	c-1.9,0.5-3.7,1.2-5.5,1.8c11.1-2.1,22.6-1.9,33.6,0.8L154.2,60.8z M88.8,109.1l-0.8-0.5c-3.3-1.9-7.1-3.1-10.9-3.3
	c-7.3-0.7-14.7-0.1-21.9,1.6c-0.2,0-0.5,0.2-0.6,0.4c-0.4,0.9-0.8,1.8-1.2,2.8l0.6-0.1c4.5-0.9,9-1.9,13.7-2.6
	c5.2-0.8,10.6-0.7,15.8,0.3C85.2,108,86.9,108.6,88.8,109.1z M86,103l0.1-0.2c-1.9-0.7-3.7-1.5-5.7-2c-8.8-2.4-17.6-2-26.5-0.4
	c-1.2,0.2-1.3,1-1.7,1.9C63.7,99.7,74.9,98.8,86,103z M52.6,105l0.2,0.3c9.5-2.2,19.1-3.3,28.8-1.5c-0.5-0.2-1-0.4-1.5-0.5
	c-1.3-0.2-2.5-0.5-3.8-0.7c-7.5-0.9-15.1-0.4-22.5,1.4C53.3,104.1,53,104.7,52.6,105L52.6,105z"/>
<path class="st0" d="M93.4,79l-0.5,1.6c-4.6-1.5-9.4-2.4-14.3-2.7c-4.9-0.3-9.7,0.5-14.3,2.2c0.5-1.2,0.8-2,2.1-2.4
	c6.1-1.7,12.6-1.9,18.8-0.6C87.9,77.6,90.6,78.3,93.4,79z"/>
<path class="st0" d="M67,75.2c0.3-1.3,1.3-2.3,2.7-2.5C76.4,71,83.3,71,90,72.7c2,0.4,3.9,1,5.9,1.5l-0.5,1.5
	C86,72.9,76.6,71.5,67,75.2z"/>
<path class="st0" d="M98.1,71l-0.5,1.5c-9.4-2.8-18.7-3.5-28.2,0.1c0.4-1.1,0.8-2,2-2.3c7.7-2.3,15.4-2,23.1-0.1
	C95.7,70.3,96.8,70.7,98.1,71z"/>
<path class="st0" d="M218.3,198.3c-2.7-0.6-5.4-1.3-8.1-1.9c-9.3-2.2-18.8-3.4-28.3-3.7c-1.5,0-3,0.1-4.6,0c-0.6,0-1.1,0.2-1.4,0.8
	c-2.4,3.6-5.9,3.3-9.4,2.8c-1.1-0.2-1.9-1.1-2-2.2c-0.2-1-0.7-1.3-1.6-1.5c-7-1.4-14.2-1.6-21.3-0.6c-5.1,0.9-10.1,2.3-15,4.1
	c-0.3,0.1-0.5,0.2-0.9,0.3c-0.5-1.3-1.1-2.4-0.3-3.9c0.5-1,0.9-2.1,1.2-3.2l-1.3,0.2l1.9-3.6l-2.1,0.6l2.2-3.9l-0.3-0.3l-2.3,0.6
	c0.2-0.4,0.3-0.6,0.4-0.9c6-11.2,11.9-22.4,17.8-33.7c0.8-1.2,1.9-2.1,3.3-2.6c8-4,16.5-4.8,25.2-3.4c3.4,0.6,6.8,1.5,10,2.8
	c0.3,0.1,0.6,0.1,0.9-0.1c3.1-2.9,6.8-5.2,10.7-6.9c7.2-3.3,14.9-4.9,22.8-4.9c3,0,6,0.3,8.9,1l-0.9,2.6l5.7,0.5l-0.9,2.4l5.2,0.4
	l-0.7,1.9l7.1,0.6l-1.1,2.4c0.4,0.2,1,0.3,1.1,0.5c0.3,0.9,0.9,1.8,0.4,2.9c-7.3,16.4-14.5,32.8-21.8,49.2
	C218.6,197.8,218.4,198.1,218.3,198.3z M221.8,135.8c-0.3-0.1-0.6-0.1-0.9-0.2c-2.4-0.1-4.9-0.4-7.3-0.4c-7.1,0.2-14,1.9-20.4,4.9
	c-3.2,1.3-6.1,3.1-8.7,5.4c-0.7,0.6-1.2,1.3-1.6,2.1c-1.5,3.5-2.9,7-4.2,10.5c-3.3,8.7-5.8,17.6-7.5,26.8c0,0.2-0.1,0.5-0.1,0.9
	c0.2-0.2,0.4-0.3,0.5-0.5c2.1-2.3,4.6-4.1,7.4-5.4c6-2.8,12.5-3.9,19.1-3.5c2.8,0.2,5.6,0.6,8.6,0.9
	C211.7,163.6,216.8,149.7,221.8,135.8z M180.8,147.1l-0.6-0.2c-4.9-2-10.2-3.1-15.6-3.2c-6.6-0.2-13.1,1.3-18.9,4.5
	c-0.5,0.3-0.9,0.7-1.2,1.2c-4.8,9-9.5,17.9-14.3,26.9l-1.9,3.5c1.9-0.3,3.5-0.7,5.2-0.9c7.4-1.2,14.9-1,22.2,0.5
	c4.8,1.1,9.2,2.9,12.7,6.4c0.1,0.1,0.2,0.1,0.3,0.1C171.2,172.5,175.6,159.7,180.8,147.1L180.8,147.1z M237,144.3
	c-1.5-0.1-2.8-0.1-4.1-0.2c-0.5-0.1-1,0.2-1.1,0.7c-0.9,2.2-1.8,4.4-2.7,6.6l-13.6,32.7c-0.7,1.7-1.4,3.5-2.1,5.2
	c-0.6-0.2-1-0.4-1.5-0.5s-1-0.3-1.6-0.4c-9.1-2.1-18.5-2.4-27.7-1c-2.3,0.2-4.5,0.9-6.5,1.9c6.4-1.9,12.8-1.7,19.3-1.2
	c6.5,0.5,13,1.6,19.3,3.4L237,144.3z M209.9,182.5l16.5-43.5c-1-0.1-1.8-0.1-2.7-0.2c-0.7-0.1-0.9,0.2-1.1,0.8
	c-4.7,13.2-9.5,26.3-14.3,39.5c-0.1,0.3-0.2,0.6-0.4,0.9l-0.9-0.2c-4.3-1-8.7-1.4-13.1-1.2c-6.1,0.1-12,1.9-17.2,5.1
	c-1.5,0.9-2.8,2.1-3.8,3.4c0.2-0.1,0.3-0.1,0.4-0.2c2.7-1.9,5.7-3.4,8.9-4.3c5.7-1.6,11.6-2.1,17.5-1.4
	C203.1,181.4,206.4,182,209.9,182.5z M230.8,141.9c-1-0.1-1.8-0.1-2.6-0.1c-0.4-0.1-0.8,0.2-0.9,0.5c0,0,0,0,0,0
	c-0.7,1.9-1.5,3.9-2.2,5.8c-4.5,11.9-9.1,23.8-13.6,35.8c-0.1,0.4-0.3,0.8-0.5,1.2c-0.8-0.2-1.5-0.4-2.3-0.5
	c-8.2-1.8-16.4-2.5-24.6-0.4c-1.9,0.5-3.7,1.2-5.5,1.8c11.1-2.2,22.6-1.9,33.6,0.8C218.4,171.8,224.6,156.9,230.8,141.9z
	 M165.4,190.2c-0.3-0.2-0.5-0.4-0.8-0.5c-3.3-1.9-7.1-3.1-10.9-3.3c-7.3-0.6-14.7-0.1-21.9,1.6c-0.2,0-0.5,0.2-0.6,0.4
	c-0.4,0.9-0.8,1.8-1.2,2.8l0.6-0.1c4.6-0.9,9.1-1.9,13.7-2.6c5.2-0.8,10.6-0.7,15.8,0.3C161.8,189.1,163.5,189.7,165.4,190.2z
	 M162.7,184.1l0.1-0.2c-1.9-0.7-3.7-1.5-5.7-2c-8.8-2.4-17.6-2-26.4-0.4c-1.2,0.2-1.4,1-1.7,1.9C140.3,180.9,151.6,180,162.7,184.1z
	 M129.3,186.1l0.2,0.3c9.5-2.2,19.1-3.3,28.8-1.5c-0.5-0.2-1-0.4-1.5-0.5c-1.3-0.2-2.5-0.5-3.8-0.7c-7.5-0.9-15.2-0.4-22.6,1.4
	C130,185.2,129.6,185.8,129.3,186.1L129.3,186.1z"/>
<path class="st0" d="M170,160.1l-0.5,1.6c-4.6-1.5-9.4-2.4-14.2-2.7c-4.9-0.3-9.7,0.5-14.3,2.3c0.5-1.1,0.8-2,2.1-2.4
	c6.1-1.7,12.6-1.9,18.8-0.6C164.6,158.7,167.2,159.5,170,160.1z"/>
<path class="st0" d="M143.6,156.3c0.3-1.3,1.3-2.3,2.7-2.5c6.7-1.6,13.7-1.6,20.3,0.1c2,0.4,3.9,1,5.9,1.5l-0.5,1.5
	C162.7,154,153.2,152.6,143.6,156.3z"/>
<path class="st0" d="M174.7,150.1l-0.5,1.5c-9.4-2.8-18.7-3.5-28.2,0.1c0.4-1.1,0.8-2,2-2.3c7.7-2.3,15.4-2,23.1-0.1
	C172.4,149.4,173.5,149.8,174.7,150.1z"/>
<path class="st0" d="M125.2,275.3c-2.7-0.6-5.4-1.3-8.1-1.9c-9.3-2.2-18.8-3.4-28.3-3.7c-1.5,0-3,0.1-4.6,0c-0.6,0-1.1,0.3-1.4,0.8
	c-2.3,3.6-5.9,3.3-9.4,2.8c-1.1-0.2-1.9-1.1-2-2.2c-0.2-1-0.7-1.3-1.7-1.5c-7-1.4-14.2-1.6-21.3-0.6c-5.1,0.9-10.1,2.3-15,4.1
	c-0.3,0.1-0.5,0.2-0.9,0.3c-0.5-1.3-1.1-2.5-0.3-3.9c0.5-1,0.9-2.1,1.2-3.2l-1.3,0.2l1.9-3.6l-2.1,0.5l2.2-3.9l-0.3-0.3l-2.3,0.6
	c0.2-0.4,0.3-0.6,0.4-0.9c5.9-11.2,11.9-22.4,17.8-33.7c0.8-1.2,1.9-2.1,3.2-2.6c8-4,16.5-4.8,25.2-3.4c3.4,0.6,6.8,1.5,10,2.8
	c0.3,0.1,0.6,0.1,0.9-0.1c3.1-2.9,6.7-5.3,10.7-6.9c7.2-3.3,14.9-4.9,22.8-4.9c3,0,6,0.3,8.9,1l-0.9,2.6l5.7,0.5l-0.9,2.4l5.2,0.4
	l-0.7,1.9l7.1,0.6l-1.1,2.4c0.4,0.2,1,0.3,1.1,0.5c0.3,0.9,0.9,1.8,0.4,2.9c-7.3,16.4-14.5,32.8-21.8,49.3
	C125.5,274.8,125.4,275,125.2,275.3z M128.8,212.7c-0.3-0.1-0.6-0.1-0.8-0.2c-2.4-0.1-4.9-0.4-7.3-0.4c-7.1,0.2-14,1.9-20.4,4.9
	c-3.2,1.3-6.1,3.2-8.7,5.4c-0.7,0.6-1.2,1.3-1.6,2.1c-1.5,3.5-2.9,7-4.2,10.5c-3.3,8.7-5.8,17.6-7.5,26.8c0,0.2-0.1,0.5-0.1,0.9
	c0.3-0.2,0.4-0.3,0.5-0.5c2.1-2.3,4.6-4.1,7.5-5.4c6-2.8,12.5-3.9,19.1-3.5c2.8,0.2,5.7,0.6,8.6,0.9
	C118.7,240.6,123.7,226.7,128.8,212.7L128.8,212.7z M87.8,224.1c-0.2-0.1-0.4-0.2-0.6-0.2c-4.9-2-10.2-3.1-15.6-3.2
	c-6.6-0.2-13.1,1.3-18.8,4.5c-0.5,0.3-0.9,0.7-1.2,1.2c-4.8,9-9.6,18-14.3,27c-0.6,1.1-1.2,2.2-1.9,3.5c1.9-0.3,3.5-0.7,5.2-0.9
	c7.4-1.2,14.9-1,22.2,0.5c4.8,1.1,9.2,2.9,12.7,6.5c0.1,0.1,0.2,0.1,0.3,0.1C78.2,249.4,82.5,236.7,87.8,224.1L87.8,224.1z
	 M143.9,221.3c-1.5-0.1-2.8-0.1-4.1-0.2c-0.5-0.1-1,0.2-1.1,0.7c0,0,0,0,0,0c-0.9,2.2-1.8,4.4-2.7,6.6c-4.5,10.9-9.1,21.8-13.6,32.7
	c-0.7,1.7-1.4,3.5-2.1,5.2c-0.6-0.2-1-0.4-1.5-0.5s-1-0.3-1.6-0.4c-9.1-2.1-18.5-2.4-27.7-1c-2.3,0.2-4.5,0.9-6.5,1.9
	c6.4-1.9,12.8-1.7,19.3-1.2c6.5,0.5,13,1.6,19.3,3.4L143.9,221.3z M116.8,259.5c5.4-14.4,10.9-28.9,16.5-43.5
	c-1-0.1-1.8-0.1-2.7-0.2c-0.6-0.1-0.9,0.2-1.1,0.8c-4.7,13.2-9.5,26.3-14.3,39.5c-0.1,0.3-0.2,0.6-0.4,0.9l-0.9-0.2
	c-4.3-1-8.7-1.4-13.1-1.2c-6.1,0.1-12,1.9-17.2,5.1c-1.5,0.9-2.8,2.1-3.8,3.4c0.2,0,0.3-0.1,0.4-0.2c2.7-1.9,5.7-3.4,8.9-4.3
	c5.7-1.6,11.6-2.1,17.5-1.5C110,258.4,113.3,259,116.8,259.5L116.8,259.5z M137.8,218.9c-1-0.1-1.8-0.1-2.6-0.1
	c-0.4-0.1-0.8,0.2-0.9,0.5c0,0,0,0,0,0c-0.7,1.9-1.5,3.9-2.2,5.8c-4.5,11.9-9.1,23.8-13.6,35.8c-0.2,0.4-0.3,0.8-0.5,1.2l-2.3-0.5
	c-8.2-1.8-16.4-2.5-24.6-0.4c-1.9,0.5-3.7,1.2-5.5,1.8c11.1-2.2,22.6-1.9,33.6,0.8L137.8,218.9z M72.3,267.2
	c-0.3-0.2-0.5-0.4-0.8-0.5c-3.3-1.9-7.1-3.1-10.9-3.3c-7.3-0.7-14.7-0.1-21.9,1.6c-0.2,0-0.5,0.2-0.6,0.4c-0.4,0.9-0.8,1.8-1.2,2.8
	l0.6-0.1c4.5-0.9,9.1-1.9,13.7-2.5c5.2-0.8,10.6-0.7,15.8,0.3C68.8,266.1,70.5,266.7,72.3,267.2z M69.6,261.1l0.1-0.2
	c-1.9-0.7-3.7-1.5-5.7-2c-8.8-2.4-17.6-2-26.5-0.4c-1.2,0.2-1.3,1-1.7,1.9C47.2,257.8,58.5,257,69.6,261.1L69.6,261.1z M36.2,263.1
	l0.2,0.3c9.5-2.2,19.1-3.3,28.8-1.5c-0.5-0.2-1-0.4-1.5-0.5c-1.3-0.2-2.5-0.5-3.8-0.7c-7.5-0.9-15.2-0.4-22.5,1.4
	C36.9,262.2,36.6,262.8,36.2,263.1L36.2,263.1z"/>
<path class="st0" d="M77,237.1l-0.5,1.6c-4.6-1.5-9.4-2.4-14.3-2.7c-4.9-0.3-9.7,0.5-14.3,2.2c0.5-1.1,0.8-2,2.1-2.4
	c6.1-1.7,12.6-1.9,18.8-0.6C71.5,235.7,74.2,236.4,77,237.1z"/>
<path class="st0" d="M50.6,233.2c0.3-1.3,1.3-2.3,2.7-2.5c6.7-1.6,13.7-1.6,20.3,0.1c2,0.4,3.9,1,5.9,1.5l-0.5,1.5
	C69.6,231,60.2,229.6,50.6,233.2z"/>
<path class="st0" d="M81.7,227.1l-0.5,1.5c-9.4-2.8-18.7-3.5-28.2,0.1c0.4-1.1,0.8-2,2-2.3c7.7-2.3,15.4-2,23.1-0.1
	C79.3,226.4,80.4,226.8,81.7,227.1z"/>
</svg>
