<?xml version="1.0" encoding="utf-8"?>
<!-- Generator: Adobe Illustrator 26.0.0, SVG Export Plug-In . SVG Version: 6.00 Build 0)  -->
<svg version="1.1" id="Capa_1" xmlns="http://www.w3.org/2000/svg" xmlns:xlink="http://www.w3.org/1999/xlink" x="0px" y="0px"
	 viewBox="0 0 300 300" style="enable-background:new 0 0 300 300;" xml:space="preserve">
<style type="text/css">
	.st0{fill:#509667;}
</style>
<path class="st0" d="M239.8,53.4l-7.7-5.7c-0.3,1.1-0.7,2.2-0.9,3.2c-0.8,2.8-0.7,5.7,0.1,8.4c0.2,0.6,0.4,1.1,0.7,1.7
	c0.8,1.4,1.4,2.9,1.8,4.4c0.6,1.7,1.2,3.4,1.8,5.2c0.4-0.5,0.9-0.9,1.2-1.4l9.4-11.2c1.3-1.3,2.3-2.9,3-4.5c0.8-2,0.5-3.6-1.2-4.8
	c-3-2.2-5.9-4.6-8.9-6.8c-1.9-1.5-3.9-2.9-5.9-4.3c0,0-0.1-0.1-0.1-0.1c0.9,0.1,2,0.2,3,0.4c0.2,0,0.4,0.1,0.6,0.2
	c3.3,2.5,6.6,4.9,9.9,7.4c0.9,0.6,1.7,1.3,2.5,2c2,1.4,2.7,3.9,1.8,6.2c-0.6,1.7-1.6,3.3-2.8,4.6c-3.4,4-6.7,8-10,12
	c-0.5,0.6-1.1,1.2-1.5,1.9c-0.2,0.2-0.2,0.5-0.2,0.8c1.2,4.1,2.4,8.2,3.6,12.2c0.9,3.1,1.9,6.2,2.8,9.3c0.7,2.4-0.3,5-2.5,6.2
	c-2.2,1-4.7,0.5-6.4-1.2c-0.8-0.9-1.4-2-1.7-3.2c-1.5-4.3-3-8.7-4.5-13l-5.2-15.1c-0.1-0.2-0.1-0.4-0.3-0.8
	c-0.5,2.1-0.9,3.9-1.4,5.8c-0.8,3.5-1.7,7-2.5,10.4c-1.1,4.7-2.2,9.4-3.4,14.1c-0.5,2.7-3,4.5-5.7,4c0,0-0.1,0-0.1,0
	c-0.7-0.1-1.5-0.2-2.2-0.5c-2.4-1-3.6-3.5-3-6c1-5,1.9-9.9,2.9-14.9c0.7-3.7,1.4-7.5,2-11.2s1.1-7.4,1.6-11.2
	c0.4-2.5,0.9-4.9,1.3-7.4c0.6-3.6,1.2-7.2,1.8-10.8c0.8-4.6,0.5-9.2,0.6-13.8s0.1-9.4,0.1-14.1c-0.1-1.5,0.9-2.9,2.4-3.2
	c1.8-0.6,3.6-1.1,5.4-1.6c6.1-1.8,12.2-3.7,18.3-5.5c1.2-0.4,2.5-0.7,3.8-0.8c2.6-0.1,4.8,1.9,4.9,4.4c0,0.8-0.1,1.6-0.5,2.3
	c-0.7,1.7-2.2,3-4,3.5c-2.9,0.9-5.7,1.9-8.5,2.9c-3.4,1.1-6.9,2.3-10.3,3.4c-0.5,0.2-0.4,0.5-0.4,0.8l0.6,5.1l0.8,7.1
	c0,0.2,0.1,0.4,0.2,0.6c1,0.9,1.1,2.4,2.1,3.4l-0.1,0.2c-1-0.8-2.1-1.5-3.1-2.4c-0.5-0.6-0.8-1.4-0.8-2.2c-0.3-3-0.7-6-1-9
	c-0.1-1-0.3-2-0.4-3.1c-0.2-0.9,0.4-1.9,1.4-2.1l14-4.7l5.4-1.8c1.8-0.7,3-2.5,2.8-4.4c-0.3-1.7-1.9-2.9-3.6-2.6c-0.1,0-0.1,0-0.2,0
	c-2.1,0.5-4.2,1.2-6.2,1.8l-9.2,2.8l-11,3.3c-0.8,0.1-1.4,0.9-1.3,1.8c-0.1,7.8-0.1,15.5-0.3,23.3c-0.1,2.8-0.5,5.6-1,8.4
	c-0.8,5.1-1.7,10.1-2.6,15.2c-0.5,3.2-0.9,6.5-1.4,9.7s-1.1,6.2-1.6,9.4c-1.1,5.9-2.2,11.7-3.3,17.6c-0.5,1.9,0.6,3.9,2.5,4.5
	c0.3,0.1,0.7,0.1,1,0.1c0.9,0.2,1.8,0.1,2.6-0.3c0.9-0.5,1.5-1.4,1.8-2.4c1.1-4.3,2.1-8.6,3.1-13c1-4.2,2-8.4,3-12.7
	c0.6-2.4,1.2-4.8,1.7-7.3c0.1-0.5,0.2-0.9,0.8-0.9s0.7,0.3,0.9,0.8c1.5,4.3,3,8.7,4.5,13c1.7,5,3.4,10.1,5.1,15.1
	c0.5,1.4,1,2.7,1.4,4.1c0.6,1.9,2.5,3.1,4.5,2.9c2-0.4,3.3-2.3,2.9-4.3c0-0.2-0.1-0.4-0.2-0.6c-0.9-2.9-1.7-5.8-2.6-8.8
	c-1-3.4-2-6.7-3-10.1c-1.3-4-2.6-8-3.9-12c-0.3-0.7-0.6-1.4-0.9-2c-1.2-2.3-1.8-4.8-1.7-7.4c0.2-2.8,0.8-5.5,1.9-8.1
	c0.3-0.8,0.8-0.9,1.5-0.4l8.7,6.5c0.7,0.5,0.8,0.9,0.2,1.6c-1.2,1.6-2.5,3.2-3.7,4.8c-0.2,0.4-0.7,0.5-1.1,0.3c0,0,0,0-0.1,0
	c-0.4-0.3-0.4-0.8-0.2-1.1c0,0,0.1-0.1,0.1-0.1C237.5,56.4,238.6,54.9,239.8,53.4z"/>
<path class="st0" d="M237.8,18.6c4.3,0,7.8,3.5,7.8,7.8c0,0.2,0,0.5,0,0.7c-0.2,4.2-3.1,7.8-7.1,8.9c-4,1.3-8.3-1-9.6-5
	c-0.2-0.5-0.3-1-0.3-1.5c-0.6-4.8,2.5-9.3,7.1-10.6C236.3,18.7,237,18.6,237.8,18.6z M236.2,34.8c0.9-0.1,1.7-0.3,2.5-0.6
	c2.9-1.1,4.9-3.8,5.2-6.9c0.5-4.8-3.7-8.5-8.7-6.6c-3,1.1-5.1,3.9-5.2,7.1c-0.4,3.4,2.1,6.5,5.5,6.9
	C235.7,34.7,235.9,34.8,236.2,34.8z"/>
<path class="st0" d="M261.1,79.6h16.5c0.3,0,0.6,0,0.8,0.2c0.2,0.2,0.3,0.5,0.2,0.8c-0.1,0.2-0.4,0.4-0.6,0.6c-0.2,0-0.4,0-0.6,0
	h-30.9c-0.8,0-1.6,0-2.4,0s-1-0.3-1-0.8s0.4-0.8,1-0.8L261.1,79.6L261.1,79.6z"/>
<path class="st0" d="M189.5,81.2h-10.6c-0.2,0-0.3,0-0.5,0c-0.4,0-0.7-0.4-0.7-0.8c0,0,0,0,0,0c0-0.4,0.3-0.8,0.7-0.8c0,0,0,0,0,0
	c0.1,0,0.2,0,0.3,0h21.6c0.8,0,1.3,0.6,0.9,1.2c-0.2,0.2-0.5,0.4-0.9,0.4c-2.1,0-4.1,0-6.2,0L189.5,81.2z"/>
<path class="st0" d="M253.6,76.4h-10.9c-0.5,0-0.9-0.1-1-0.6s0.2-1,1-1h21.4c0.2,0,0.4,0,0.6,0c0.4,0,0.7,0.4,0.7,0.7
	c0,0.4-0.2,0.8-0.6,0.8c-0.2,0-0.4,0-0.5,0L253.6,76.4z"/>
<path class="st0" d="M255.1,85.9H246c-0.8,0-1.1-0.3-1.1-0.8s0.4-0.8,1.1-0.8h18.4c0.7,0,1.1,0.3,1.1,0.8s-0.4,0.7-1,0.7L255.1,85.9
	z"/>
<path class="st0" d="M194.2,76.4h-7.6c-0.7,0-1.1-0.3-1-0.8s0.4-0.8,1-0.8h14.7h0.6c0.7,0,1.1,0.3,1.1,0.8s-0.4,0.8-1,0.8
	L194.2,76.4L194.2,76.4z"/>
<path class="st0" d="M215.5,55.6c0.4-2.6,0.7-5.1,1.1-7.7c0.4-2.1,0.9-4.2,1.3-6.3c0.1-0.6,0.5-0.9,1-0.7s0.6,0.5,0.5,1
	c-0.5,2.2-1,4.5-1.4,6.7s-0.6,4.7-1,7c-0.1,0.7-0.3,1-0.9,1S215.6,56.3,215.5,55.6z"/>
<path class="st0" d="M192.6,85.9h-6c-0.6,0-1-0.3-1-0.8s0.4-0.8,1-0.8h12.1c0.7,0,1.1,0.3,1,0.8s-0.4,0.8-1,0.8H192.6z"/>
<path class="st0" d="M263.2,29.3c0-0.3,0-0.5,0-0.8c0-0.4,0.3-0.8,0.8-0.8c0,0,0,0,0,0c0.4,0,0.8,0.2,0.8,0.7c0,0,0,0,0,0.1
	c0.1,0.6,0.1,1.2,0,1.7c-0.1,0.3-0.4,0.5-0.7,0.7c-0.4,0.1-0.7-0.2-0.8-0.6C263.2,29.9,263.2,29.6,263.2,29.3L263.2,29.3z"/>
<path class="st0" d="M253.9,51.9c-0.2-0.2-0.6-0.3-0.7-0.6c-0.1-0.3-0.1-0.6,0.1-0.8c0.3-0.5,0.7-0.9,1.1-1.3c0.3-0.3,0.7-0.3,1-0.1
	c0,0,0,0,0.1,0.1c0.3,0.3,0.4,0.7,0.1,1.1c0,0,0,0.1-0.1,0.1c-0.4,0.4-0.7,0.8-1.1,1.2C254.4,51.6,254.2,51.8,253.9,51.9z"/>
<path class="st0" d="M251.9,6.2c-0.2-0.1-0.4-0.2-0.6-0.3c-0.4-0.3-0.8-0.7-1.1-1c-0.3-0.2-0.4-0.7-0.2-1c0,0,0,0,0,0
	c0.2-0.4,0.7-0.5,1-0.2c0,0,0.1,0,0.1,0.1c0.5,0.3,0.9,0.6,1.2,1c0.2,0.3,0.3,0.6,0.2,0.9C252.5,5.8,252.1,6,251.9,6.2z"/>
<path class="st0" d="M255.2,9.4c0,0-0.2,0-0.2-0.1c-0.5-0.6-1.1-1.1-1.5-1.7c-0.1-0.1,0.1-0.6,0.3-0.8c0.2-0.2,0.5-0.2,0.8-0.1
	c0.5,0.4,1,0.9,1.4,1.4c0.2,0.3,0.2,0.8-0.2,1.1C255.5,9.4,255.3,9.4,255.2,9.4z"/>
<path class="st0" d="M258.1,13.2c-0.6,0-1.9-1.8-1.7-2.3c0.1-0.4,0.5-0.6,0.9-0.5c0.1,0,0.2,0.1,0.3,0.2c0.4,0.5,0.8,1,1.2,1.5
	c0.2,0.4,0.1,0.9-0.3,1.1C258.4,13.1,258.3,13.2,258.1,13.2z"/>
<path class="st0" d="M261.6,16.4c-0.2,0.3-0.4,0.6-0.6,0.7c-0.3,0.1-0.7,0-0.9-0.2c-0.4-0.5-0.7-1-0.9-1.6c-0.1-0.3,0-0.7,0.3-0.9
	c0.3-0.2,0.6-0.2,0.8,0C260.7,15,261.2,15.7,261.6,16.4z"/>
<path class="st0" d="M258.9,46c-0.1,0.2-0.1,0.4-0.2,0.6c-0.3,0.5-0.7,0.9-1,1.3c-0.2,0.3-0.7,0.3-1,0.1c0,0,0,0,0,0
	c-0.3-0.2-0.4-0.7-0.2-1c0,0,0,0,0,0c0.3-0.5,0.7-1,1.1-1.4c0.2-0.2,0.6-0.3,0.9-0.2C258.5,45.5,258.7,45.8,258.9,46z"/>
<path class="st0" d="M262.1,18.5c0.1,0.1,0.4,0.2,0.5,0.5c0.2,0.5,0.4,1,0.6,1.5c0.2,0.4,0,0.9-0.4,1c0,0-0.1,0-0.1,0
	c-0.4,0.1-0.8-0.1-1-0.5c0,0,0,0,0-0.1c-0.2-0.5-0.4-0.9-0.5-1.4S261.4,18.5,262.1,18.5z"/>
<path class="st0" d="M263.6,23c0.1,0.1,0.4,0.3,0.5,0.6c0.2,0.5,0.3,1.1,0.3,1.6c0.1,0.4-0.2,0.8-0.6,0.8c0,0,0,0,0,0
	c-0.4,0.1-0.8-0.1-0.9-0.5c0,0,0-0.1,0-0.1c-0.1-0.5-0.2-1.1-0.3-1.6S262.9,23,263.6,23z"/>
<path class="st0" d="M264.5,33.1c-0.1,0.7-0.3,1.3-0.5,2c-0.2,0.3-0.5,0.5-0.9,0.5c-0.4,0-0.7-0.3-0.6-0.7c0,0,0-0.1,0-0.1
	c0.1-0.6,0.2-1.2,0.4-1.7c0.2-0.3,0.5-0.5,0.8-0.5C264.1,32.5,264.3,32.9,264.5,33.1z"/>
<path class="st0" d="M263.4,37.7c-0.3,0.7-0.6,1.4-1,2.1c-0.2,0.2-0.6,0.2-0.8,0.1c-0.3-0.2-0.4-0.5-0.4-0.8
	c0.1-0.6,0.4-1.2,0.7-1.7c0.2-0.2,0.5-0.4,0.9-0.3C263,37.1,263.2,37.5,263.4,37.7z"/>
<path class="st0" d="M259.9,44.2c-0.7,0-1.1-0.5-0.8-1.1c0.2-0.5,0.5-1,0.9-1.5c0.1-0.3,0.5-0.5,0.8-0.3c0.1,0,0.1,0.1,0.2,0.1
	c0.3,0.2,0.4,0.6,0.4,0.9c-0.2,0.6-0.5,1.1-0.9,1.6C260.3,44.2,260,44.2,259.9,44.2z"/>
<path class="st0" d="M220.4,37.7c0,0.4-0.3,0.8-0.8,0.8c0,0,0,0,0,0c-0.4,0-0.8-0.3-0.8-0.7c0,0,0,0,0,0c0-0.4,0.3-0.8,0.7-0.8
	c0,0,0,0,0,0C220,36.9,220.3,37.3,220.4,37.7z"/>
<path class="st0" d="M236.1,60.7c0,0.4-0.4,0.7-0.8,0.7c-0.4,0-0.8-0.3-0.8-0.7c0,0,0-0.1,0-0.1c0-0.4,0.4-0.8,0.9-0.8
	C235.9,59.9,236.2,60.3,236.1,60.7z"/>
<path class="st0" d="M96.2,143.1l-7.7-5.8c-0.3,1.1-0.7,2.2-0.9,3.2c-0.8,2.8-0.7,5.7,0.2,8.4c0.2,0.6,0.4,1.1,0.7,1.6
	c0.8,1.4,1.4,2.9,1.8,4.4c0.6,1.7,1.2,3.4,1.8,5.2c0.4-0.5,0.8-0.9,1.2-1.4c3.1-3.7,6.2-7.4,9.3-11.2c1.3-1.3,2.3-2.9,3-4.5
	c0.8-2,0.5-3.6-1.2-4.8c-3-2.2-5.9-4.6-8.9-6.8c-1.9-1.5-3.9-2.9-5.9-4.3c-0.1,0-0.1-0.1-0.1-0.1c0.9,0.1,2,0.2,3,0.4
	c0.2,0,0.4,0.1,0.6,0.2c3.3,2.5,6.6,4.9,9.9,7.4c0.8,0.6,1.7,1.3,2.5,2c2,1.4,2.7,3.9,1.8,6.2c-0.6,1.7-1.6,3.2-2.8,4.6
	c-3.3,4-6.7,8-10,12c-0.5,0.6-1.1,1.2-1.5,1.9c-0.2,0.2-0.2,0.5-0.2,0.8c1.2,4.1,2.4,8.2,3.6,12.2c0.9,3.1,1.9,6.2,2.8,9.3
	c0.7,2.4-0.4,5-2.6,6.2c-2.2,1-4.7,0.5-6.4-1.2c-0.8-0.9-1.4-2-1.7-3.2c-1.5-4.3-3-8.6-4.5-13c-1.7-5-3.4-10-5.2-15.1
	c-0.1-0.2-0.2-0.4-0.3-0.8c-0.5,2.1-0.9,3.9-1.4,5.8c-0.8,3.5-1.7,6.9-2.5,10.4c-1.1,4.7-2.2,9.4-3.4,14.1c-0.5,2.7-3,4.5-5.7,4
	c0,0-0.1,0-0.1,0c-0.7-0.1-1.5-0.2-2.2-0.5c-2.4-1-3.6-3.5-3-6c1-5,1.9-9.9,2.8-14.9c0.7-3.7,1.3-7.5,2-11.2c0.6-3.7,1-7.4,1.6-11.2
	c0.4-2.5,0.9-4.9,1.3-7.4c0.6-3.6,1.2-7.2,1.8-10.8c0.8-4.6,0.5-9.2,0.6-13.8s0.1-9.4,0.2-14.1c-0.1-1.5,0.9-2.9,2.3-3.2
	c1.8-0.6,3.6-1.1,5.4-1.7c6.1-1.8,12.2-3.7,18.3-5.5c1.2-0.4,2.5-0.7,3.8-0.8c2.6-0.1,4.8,1.9,4.9,4.5c0,0.8-0.1,1.6-0.5,2.3
	c-0.7,1.7-2.2,3-4,3.5c-2.9,0.9-5.7,1.9-8.6,2.9c-3.4,1.2-6.8,2.3-10.3,3.4c-0.5,0.2-0.4,0.5-0.4,0.8l0.6,5.1l0.8,7.1
	c0,0.2,0.1,0.4,0.2,0.6c1,0.9,1.1,2.4,2.1,3.4l-0.1,0.1c-1-0.8-2.1-1.5-3.1-2.4c-0.5-0.6-0.8-1.4-0.8-2.2c-0.3-3-0.7-6-1-9
	c-0.1-1-0.3-2.1-0.4-3.1c-0.2-0.9,0.4-1.9,1.4-2.1l14.1-4.8l5.4-1.8c1.8-0.7,3-2.5,2.8-4.4c-0.3-1.7-1.9-2.9-3.6-2.6
	c-0.1,0-0.1,0-0.2,0c-2.1,0.5-4.2,1.2-6.2,1.8c-3.1,0.9-6.1,1.8-9.2,2.7l-11,3.3c-0.9,0.1-1.5,0.8-1.5,1.7c0,0,0,0.1,0,0.1
	c-0.1,7.8-0.1,15.5-0.3,23.3c-0.1,2.8-0.5,5.6-1,8.4c-0.8,5.1-1.7,10.1-2.6,15.2c-0.5,3.2-0.9,6.5-1.4,9.7s-1.1,6.2-1.6,9.4
	c-1.1,5.9-2.2,11.7-3.3,17.6c-0.5,1.9,0.6,3.9,2.5,4.5c0.3,0.1,0.7,0.1,1,0.1c0.9,0.2,1.8,0.1,2.6-0.3c0.9-0.5,1.5-1.4,1.8-2.4
	c1.1-4.3,2.1-8.7,3.1-13l3-12.7c0.6-2.4,1.2-4.8,1.7-7.2c0.1-0.5,0.2-0.9,0.8-0.9s0.7,0.3,0.8,0.8c1.5,4.3,3,8.6,4.5,13
	c1.7,5,3.5,10.1,5.2,15.1c0.5,1.4,0.9,2.7,1.4,4.1c0.6,1.9,2.5,3.1,4.5,2.9c2-0.4,3.3-2.3,2.9-4.3c0-0.2-0.1-0.4-0.2-0.6
	c-0.9-2.9-1.7-5.8-2.6-8.8c-1-3.4-2-6.8-3-10.1c-1.3-4-2.6-8-3.9-12c-0.2-0.7-0.6-1.4-0.9-2c-1.2-2.3-1.8-4.9-1.6-7.4
	c0.2-2.8,0.8-5.5,1.9-8.1c0.3-0.8,0.8-0.9,1.5-0.4l8.7,6.5c0.7,0.5,0.8,0.9,0.2,1.6l-3.7,4.8c-0.2,0.4-0.7,0.5-1.1,0.2
	c-0.4-0.2-0.5-0.7-0.2-1.1c0,0,0.1-0.1,0.1-0.1C93.9,146,95,144.6,96.2,143.1z"/>
<path class="st0" d="M94.1,108.2c4.3,0,7.8,3.5,7.8,7.8c0,0.2,0,0.5,0,0.7c-0.2,4.2-3.1,7.7-7.1,8.9c-4,1.3-8.3-1-9.6-5
	c-0.2-0.5-0.3-1-0.3-1.5c-0.6-4.8,2.5-9.3,7.1-10.6C92.7,108.4,93.4,108.3,94.1,108.2z M92.6,124.4c0.9-0.1,1.7-0.3,2.5-0.6
	c2.9-1.1,5-3.8,5.2-6.9c0.5-4.8-3.7-8.5-8.7-6.6c-3,1.1-5.1,3.9-5.2,7.1c-0.4,3.4,2.1,6.5,5.5,6.9C92.1,124.4,92.3,124.4,92.6,124.4
	z"/>
<path class="st0" d="M117.5,169.2h16.5c0.3,0,0.6,0,0.8,0.2c0.2,0.2,0.3,0.5,0.2,0.8c-0.1,0.2-0.4,0.4-0.6,0.6s-0.4,0-0.6,0h-33.3
	c-0.7,0-1-0.3-1-0.8s0.4-0.8,1-0.8L117.5,169.2L117.5,169.2z"/>
<path class="st0" d="M45.9,170.8H35.3c-0.2,0-0.3,0-0.5,0c-0.4,0-0.7-0.4-0.7-0.8c0,0,0,0,0,0c0-0.4,0.3-0.8,0.7-0.8c0,0,0,0,0,0
	c0.1,0,0.2,0,0.3,0h21.6c0.8,0,1.3,0.6,0.9,1.2c-0.2,0.2-0.5,0.4-0.8,0.4c-2.1,0-4.1,0-6.2,0L45.9,170.8z"/>
<path class="st0" d="M110,166.1H99.1c-0.5,0-0.8-0.1-1-0.6s0.2-1,1-1h21.4c0.2,0,0.4,0,0.6,0c0.4,0,0.7,0.4,0.7,0.7
	c0.1,0.4-0.2,0.8-0.6,0.8c0,0,0,0,0,0c-0.2,0-0.4,0-0.6,0L110,166.1z"/>
<path class="st0" d="M111.5,175.6h-9.2c-0.7,0-1.1-0.3-1.1-0.8c0-0.5,0.4-0.8,1.1-0.8h18.4c0.7,0,1.1,0.3,1.1,0.8s-0.4,0.8-1,0.8
	H111.5z"/>
<path class="st0" d="M50.6,166.1H43c-0.7,0-1.1-0.3-1-0.8s0.4-0.8,1-0.8h15.3c0.7,0,1.1,0.3,1,0.8s-0.3,0.8-1,0.8H50.6z"/>
<path class="st0" d="M71.9,145.2c0.4-2.6,0.7-5.1,1.1-7.7c0.4-2.1,0.9-4.2,1.3-6.3c0.1-0.6,0.5-0.9,1-0.7s0.6,0.5,0.5,1
	c-0.5,2.2-1,4.4-1.4,6.7s-0.7,4.7-1,7c-0.1,0.7-0.3,1-0.9,1S72,145.9,71.9,145.2z"/>
<path class="st0" d="M49,175.6h-6c-0.6,0-1-0.3-1-0.8s0.3-0.8,1-0.8h12.2c0.7,0,1.1,0.3,1,0.8s-0.4,0.8-1,0.8L49,175.6z"/>
<path class="st0" d="M119.6,118.9c0-0.3,0-0.5,0-0.8c0-0.4,0.3-0.8,0.7-0.8c0,0,0,0,0,0c0.4,0,0.8,0.3,0.8,0.7c0,0,0,0,0,0.1
	c0.1,0.6,0.1,1.2,0,1.7c-0.1,0.3-0.4,0.5-0.7,0.7c-0.4,0.1-0.7-0.2-0.8-0.6C119.6,119.6,119.6,119.2,119.6,118.9L119.6,118.9z"/>
<path class="st0" d="M110.3,141.5c-0.3-0.2-0.6-0.3-0.7-0.6c-0.1-0.3-0.1-0.6,0.1-0.8c0.3-0.5,0.7-0.9,1.1-1.2
	c0.3-0.3,0.7-0.3,1-0.1c0,0,0,0,0.1,0.1c0.3,0.3,0.4,0.7,0.1,1c0,0-0.1,0.1-0.1,0.1c-0.3,0.4-0.7,0.8-1.1,1.1
	C110.7,141.3,110.5,141.4,110.3,141.5z"/>
<path class="st0" d="M108.3,95.8c-0.2-0.1-0.4-0.2-0.7-0.3c-0.4-0.3-0.8-0.7-1.1-1c-0.3-0.2-0.4-0.7-0.2-1c0,0,0,0,0-0.1
	c0.2-0.4,0.7-0.5,1-0.2c0,0,0.1,0,0.1,0.1c0.4,0.3,0.9,0.6,1.2,1c0.2,0.3,0.3,0.6,0.2,0.9C108.9,95.5,108.5,95.6,108.3,95.8z"/>
<path class="st0" d="M111.6,99.1c0,0-0.2,0-0.2-0.1c-0.5-0.5-1.1-1.1-1.6-1.7c-0.1-0.1,0.1-0.6,0.3-0.8c0.2-0.2,0.5-0.2,0.8-0.1
	c0.5,0.4,1,0.9,1.4,1.4c0.2,0.3,0.2,0.8-0.2,1.1C111.9,99,111.7,99.1,111.6,99.1z"/>
<path class="st0" d="M114.5,102.8c-0.6,0-1.8-1.8-1.7-2.3c0.1-0.4,0.5-0.6,0.9-0.5c0.1,0,0.2,0.1,0.3,0.2c0.4,0.5,0.8,1,1.2,1.5
	c0.2,0.4,0.1,0.9-0.3,1.1C114.8,102.8,114.7,102.8,114.5,102.8z"/>
<path class="st0" d="M118,106.1c-0.2,0.3-0.4,0.6-0.7,0.7c-0.3,0.1-0.7,0-0.9-0.2c-0.4-0.5-0.7-1-0.9-1.6c-0.1-0.3,0-0.7,0.3-0.9
	c0.3-0.1,0.6-0.1,0.8,0C117.2,104.7,117.6,105.4,118,106.1z"/>
<path class="st0" d="M115.3,135.6c-0.1,0.2-0.1,0.4-0.2,0.6c-0.3,0.5-0.6,0.9-1,1.3c-0.2,0.3-0.7,0.3-1,0.1c0,0,0,0,0,0
	c-0.3-0.2-0.4-0.7-0.2-1c0,0,0,0,0,0c0.3-0.5,0.7-1,1.1-1.4c0.2-0.2,0.6-0.3,0.8-0.2C114.9,135.1,115.1,135.4,115.3,135.6z"/>
<path class="st0" d="M118.5,108.1c0.1,0.1,0.4,0.2,0.5,0.5c0.2,0.5,0.4,1,0.6,1.5c0.2,0.4,0,0.9-0.4,1c0,0-0.1,0-0.1,0
	c-0.4,0.1-0.8-0.1-1-0.5c0,0,0-0.1,0-0.1c-0.2-0.4-0.4-0.9-0.5-1.3S117.8,108.1,118.5,108.1z"/>
<path class="st0" d="M120,112.7c0.1,0.1,0.4,0.3,0.5,0.6c0.2,0.5,0.3,1.1,0.3,1.7c0.1,0.4-0.2,0.8-0.6,0.8c0,0,0,0,0,0
	c-0.4,0.1-0.8-0.1-0.9-0.5c0,0,0-0.1,0-0.1c-0.1-0.5-0.2-1.1-0.3-1.6S119.3,112.7,120,112.7z"/>
<path class="st0" d="M120.9,122.7c-0.1,0.7-0.3,1.3-0.5,2c-0.2,0.3-0.5,0.5-0.8,0.5c-0.4,0-0.7-0.3-0.6-0.7c0,0,0-0.1,0-0.1
	c0-0.6,0.2-1.2,0.4-1.8c0.2-0.3,0.5-0.5,0.8-0.5C120.5,122.2,120.7,122.5,120.9,122.7z"/>
<path class="st0" d="M119.8,127.4c-0.3,0.7-0.6,1.4-1,2.1c-0.2,0.2-0.6,0.2-0.8,0.1c-0.3-0.2-0.4-0.5-0.4-0.8
	c0.1-0.6,0.4-1.2,0.7-1.7c0.2-0.2,0.5-0.3,0.9-0.3C119.4,126.8,119.6,127.1,119.8,127.4z"/>
<path class="st0" d="M116.3,133.9c-0.7,0-1.1-0.5-0.8-1.1c0.2-0.5,0.5-1,0.9-1.5c0.1-0.3,0.5-0.5,0.8-0.3c0.1,0,0.1,0.1,0.2,0.1
	c0.3,0.2,0.4,0.6,0.4,0.9c-0.2,0.6-0.5,1.1-0.9,1.6C116.7,133.8,116.4,133.9,116.3,133.9z"/>
<path class="st0" d="M76.7,127.3c0,0.4-0.3,0.8-0.7,0.8c0,0,0,0-0.1,0c-0.4,0-0.8-0.3-0.8-0.7c0,0,0,0,0,0c0-0.4,0.3-0.8,0.8-0.8
	c0,0,0,0,0,0C76.4,126.6,76.7,126.9,76.7,127.3z"/>
<path class="st0" d="M92.6,150.4c0,0.4-0.4,0.7-0.8,0.7c-0.4,0-0.8-0.3-0.8-0.7c0,0,0-0.1,0-0.1c0-0.4,0.4-0.8,0.8-0.8c0,0,0,0,0,0
	C92.3,149.5,92.6,149.9,92.6,150.4z"/>
<path class="st0" d="M215.6,199.3l-7.6-5.7c-0.3,1.1-0.7,2.2-0.9,3.2c-0.8,2.8-0.7,5.7,0.1,8.4c0.2,0.6,0.4,1.1,0.7,1.6
	c0.8,1.4,1.4,2.9,1.8,4.4c0.6,1.7,1.2,3.4,1.8,5.2c0.4-0.5,0.9-0.9,1.2-1.4l9.3-11.1c1.3-1.3,2.3-2.9,3-4.5c0.8-2,0.5-3.6-1.2-4.8
	c-3-2.2-5.9-4.6-8.9-6.8c-1.9-1.5-3.9-2.9-5.9-4.3c-0.1-0.1-0.1-0.1-0.1-0.1c0.9,0.1,1.9,0.2,3,0.4c0.2,0,0.4,0.1,0.6,0.2
	c3.3,2.5,6.6,5,9.9,7.4c0.9,0.6,1.7,1.3,2.5,2c2,1.4,2.7,3.9,1.8,6.2c-0.6,1.7-1.6,3.3-2.8,4.6c-3.4,4-6.7,8-10,12
	c-0.5,0.6-1.1,1.2-1.5,1.9c-0.2,0.2-0.2,0.5-0.2,0.8c1.2,4.1,2.4,8.2,3.6,12.2c0.9,3.1,1.9,6.2,2.8,9.3c0.7,2.4-0.4,5-2.6,6.2
	c-2.2,1-4.7,0.5-6.4-1.2c-0.8-0.9-1.4-2-1.7-3.2c-1.5-4.3-3-8.7-4.5-13c-1.7-5-3.5-10-5.2-15.1c-0.1-0.2-0.2-0.4-0.3-0.8
	c-0.5,2.1-0.9,3.9-1.4,5.8c-0.8,3.5-1.7,6.9-2.5,10.4c-1.1,4.7-2.2,9.4-3.4,14.1c-0.5,2.7-3,4.5-5.7,4c0,0-0.1,0-0.1,0
	c-0.7-0.1-1.5-0.2-2.2-0.5c-2.4-1-3.6-3.5-3-6c1-5,1.9-9.9,2.9-14.9c0.7-3.7,1.3-7.5,2-11.2c0.6-3.7,1.1-7.4,1.6-11.2
	c0.4-2.5,0.9-4.9,1.3-7.4c0.6-3.6,1.2-7.2,1.8-10.8c0.8-4.6,0.5-9.2,0.6-13.8s0.1-9.4,0.1-14.1c-0.1-1.5,0.9-2.9,2.4-3.2
	c1.8-0.6,3.6-1.1,5.4-1.6c6.1-1.8,12.2-3.7,18.3-5.5c1.2-0.4,2.5-0.7,3.8-0.8c2.6-0.1,4.8,1.9,4.9,4.5c0,0.8-0.1,1.6-0.5,2.3
	c-0.7,1.7-2.2,3-4,3.5c-2.9,0.9-5.7,1.9-8.6,2.9c-3.4,1.1-6.9,2.3-10.3,3.4c-0.5,0.2-0.4,0.5-0.4,0.8l0.6,5.1l0.8,7.1
	c0,0.2,0.1,0.4,0.2,0.6c1,0.9,1.1,2.4,2.1,3.4l-0.1,0.1c-1-0.8-2.1-1.5-3.1-2.4c-0.5-0.6-0.8-1.4-0.8-2.2c-0.3-3-0.7-6-1-9
	c-0.1-1-0.3-2.1-0.4-3.1c-0.2-0.9,0.4-1.9,1.4-2.1l14.1-4.8l5.4-1.8c1.8-0.7,3-2.5,2.8-4.4c-0.3-1.7-1.9-2.9-3.6-2.6
	c-0.1,0-0.1,0-0.2,0c-2.1,0.5-4.2,1.2-6.2,1.8l-9.2,2.8l-11,3.3c-0.8,0.1-1.4,0.9-1.3,1.8c-0.1,7.8-0.1,15.5-0.3,23.3
	c-0.1,2.8-0.5,5.6-1,8.4c-0.8,5.1-1.7,10.1-2.6,15.2c-0.5,3.2-0.9,6.5-1.4,9.7s-1.1,6.2-1.6,9.4c-1.1,5.9-2.2,11.7-3.3,17.6
	c-0.5,1.9,0.6,3.9,2.5,4.5c0.3,0.1,0.7,0.1,1,0.1c0.9,0.2,1.8,0.1,2.6-0.3c0.9-0.5,1.5-1.4,1.8-2.4c1.1-4.3,2.1-8.6,3.1-12.9l3-12.7
	c0.6-2.4,1.2-4.8,1.7-7.3c0.1-0.5,0.2-0.9,0.8-0.9s0.7,0.3,0.9,0.8c1.5,4.3,3,8.7,4.5,13c1.7,5,3.5,10.1,5.2,15.1
	c0.5,1.4,0.9,2.7,1.4,4.1c0.6,1.9,2.5,3.1,4.5,2.9c2-0.4,3.3-2.3,2.9-4.3c0-0.2-0.1-0.4-0.2-0.6c-0.9-2.9-1.7-5.9-2.6-8.8
	c-1-3.4-2-6.7-3-10.1c-1.3-4-2.6-8-3.9-12c-0.2-0.7-0.6-1.4-0.9-2c-1.2-2.3-1.8-4.9-1.6-7.5c0.2-2.8,0.8-5.5,1.9-8.1
	c0.3-0.8,0.8-0.9,1.5-0.4l8.7,6.5c0.7,0.5,0.8,0.9,0.2,1.6l-3.7,4.8c-0.2,0.4-0.7,0.5-1.1,0.3c0,0,0,0,0,0c-0.4-0.3-0.4-0.8-0.2-1.1
	c0,0,0-0.1,0.1-0.1C213.4,202.3,214.5,200.9,215.6,199.3z"/>
<path class="st0" d="M213.6,164.5c4.3,0,7.8,3.5,7.8,7.8c0,0.2,0,0.5,0,0.7c-0.2,4.2-3.1,7.7-7.1,8.9c-4,1.3-8.3-1-9.6-5
	c-0.2-0.5-0.3-1-0.3-1.5c-0.6-4.8,2.5-9.3,7.1-10.6C212.2,164.7,212.9,164.6,213.6,164.5z M212.1,180.7c0.9-0.1,1.7-0.3,2.5-0.6
	c2.9-1.1,5-3.8,5.2-6.9c0.5-4.8-3.7-8.5-8.7-6.6c-3,1.1-5.1,3.9-5.2,7.1c-0.4,3.4,2.1,6.5,5.5,6.9
	C211.6,180.7,211.8,180.7,212.1,180.7z"/>
<path class="st0" d="M237,225.5h16.5c0.3,0,0.6,0,0.8,0.2c0.2,0.2,0.3,0.5,0.2,0.8c-0.1,0.2-0.4,0.4-0.6,0.6c-0.2,0-0.4,0-0.6,0
	h-33.3c-0.7,0-1-0.3-1-0.8s0.4-0.8,1-0.8L237,225.5L237,225.5z"/>
<path class="st0" d="M165.4,227.1h-10.6c-0.2,0-0.3,0-0.5,0c-0.4,0-0.7-0.4-0.7-0.8c0,0,0,0,0,0c0-0.4,0.3-0.8,0.7-0.8c0,0,0,0,0,0
	c0.1,0,0.2,0,0.3,0h21.6c0.8,0,1.3,0.6,0.9,1.2c-0.2,0.2-0.5,0.4-0.9,0.4c-2.1,0-4.1,0-6.2,0L165.4,227.1z"/>
<path class="st0" d="M229.4,222.4h-10.9c-0.5,0-0.9-0.1-1-0.6s0.2-1,1-1c2.1,0,4.3,0,6.4,0h15c0.2,0,0.4,0,0.6,0
	c0.4,0,0.7,0.4,0.7,0.7c0,0.4-0.2,0.8-0.6,0.8c-0.2,0-0.4,0-0.6,0L229.4,222.4z"/>
<path class="st0" d="M231,231.9h-9.2c-0.8,0-1.1-0.3-1.1-0.8s0.4-0.8,1.1-0.8h18.4c0.7,0,1.1,0.3,1.1,0.8s-0.4,0.7-1,0.7H231z"/>
<path class="st0" d="M170.1,222.4h-7.6c-0.7,0-1.1-0.3-1-0.8s0.4-0.8,1-0.8h14.7h0.6c0.7,0,1.1,0.3,1.1,0.8s-0.4,0.8-1,0.8
	L170.1,222.4L170.1,222.4z"/>
<path class="st0" d="M191.4,201.6c0.4-2.6,0.7-5.1,1.1-7.7c0.4-2.1,0.9-4.2,1.3-6.3c0-0.4,0.4-0.8,0.9-0.8c0,0,0.1,0,0.1,0
	c0.6,0.1,0.6,0.6,0.5,1.1c-0.5,2.2-1,4.4-1.4,6.7s-0.6,4.7-0.9,7c-0.1,0.7-0.3,1-0.9,1S191.5,202.2,191.4,201.6z"/>
<path class="st0" d="M168.5,231.9h-6c-0.6,0-1-0.3-1-0.8s0.4-0.8,1-0.8h12.1c0.7,0,1.1,0.3,1,0.8s-0.4,0.8-1,0.8H168.5z"/>
<path class="st0" d="M239.1,175.2c0-0.3,0-0.5,0-0.8c0-0.4,0.3-0.8,0.7-0.8c0,0,0,0,0,0c0.4,0,0.8,0.2,0.8,0.7c0,0,0,0,0,0.1
	c0.1,0.6,0.1,1.2,0,1.7c-0.1,0.3-0.4,0.5-0.7,0.6c-0.4,0.1-0.7-0.2-0.8-0.6C239.1,175.9,239.1,175.5,239.1,175.2L239.1,175.2z"/>
<path class="st0" d="M229.8,197.8c-0.2-0.2-0.6-0.3-0.7-0.6c-0.1-0.3-0.1-0.6,0.1-0.8c0.3-0.5,0.7-0.9,1.1-1.3
	c0.3-0.3,0.7-0.3,1-0.1c0,0,0,0,0.1,0.1c0.3,0.3,0.4,0.7,0.1,1.1c0,0,0,0.1-0.1,0.1c-0.4,0.4-0.7,0.8-1.1,1.1
	C230.2,197.6,230,197.7,229.8,197.8z"/>
<path class="st0" d="M227.8,152.1c-0.2-0.1-0.4-0.2-0.6-0.3c-0.4-0.3-0.8-0.7-1.1-1c-0.3-0.2-0.4-0.7-0.2-1c0,0,0,0,0-0.1
	c0.2-0.4,0.7-0.5,1-0.2c0,0,0.1,0,0.1,0.1c0.5,0.3,0.9,0.7,1.2,1.1c0.2,0.3,0.3,0.6,0.2,0.9C228.4,151.8,228,151.9,227.8,152.1z"/>
<path class="st0" d="M231,155.4c0,0-0.2,0-0.2-0.1c-0.5-0.6-1.1-1.1-1.6-1.7c-0.1-0.1,0.1-0.6,0.3-0.8c0.2-0.2,0.5-0.2,0.8-0.1
	c0.5,0.4,1,0.9,1.4,1.4c0.2,0.3,0.2,0.8-0.2,1.1C231.4,155.3,231.2,155.4,231,155.4z"/>
<path class="st0" d="M234,159.1c-0.6,0-1.9-1.8-1.7-2.3c0.1-0.4,0.5-0.6,0.9-0.5c0.1,0,0.2,0.1,0.3,0.2c0.4,0.5,0.8,1,1.2,1.5
	c0.2,0.4,0,0.9-0.3,1.1C234.3,159.1,234.1,159.1,234,159.1z"/>
<path class="st0" d="M237.5,162.4c-0.2,0.3-0.4,0.6-0.6,0.7c-0.3,0.1-0.7,0-0.9-0.2c-0.4-0.5-0.7-1-0.9-1.6c-0.1-0.3,0-0.7,0.3-0.9
	c0.3-0.1,0.6-0.1,0.9,0C236.6,160.9,237,161.6,237.5,162.4z"/>
<path class="st0" d="M234.8,191.9c-0.1,0.2-0.1,0.4-0.2,0.6c-0.3,0.4-0.7,0.9-1,1.3c-0.2,0.3-0.7,0.3-1,0.1c0,0,0,0,0,0
	c-0.3-0.2-0.4-0.7-0.2-1c0,0,0,0,0,0c0.3-0.5,0.7-1,1.1-1.4c0.2-0.2,0.6-0.3,0.9-0.2C234.4,191.4,234.6,191.8,234.8,191.9z"/>
<path class="st0" d="M238,164.4c0.1,0.1,0.4,0.2,0.5,0.5c0.2,0.5,0.4,1,0.6,1.5c0.2,0.4,0,0.9-0.4,1c0,0-0.1,0-0.1,0
	c-0.4,0.1-0.8-0.1-1-0.5c0,0,0,0,0-0.1c-0.2-0.4-0.4-0.9-0.5-1.4S237.3,164.4,238,164.4z"/>
<path class="st0" d="M239.5,169c0.1,0.1,0.4,0.3,0.5,0.6c0.2,0.5,0.3,1.1,0.3,1.6c0.1,0.4-0.2,0.8-0.6,0.8c0,0,0,0,0,0
	c-0.4,0.1-0.8-0.1-0.9-0.5c0,0,0-0.1,0-0.1c-0.1-0.5-0.2-1.1-0.3-1.6S238.8,169,239.5,169z"/>
<path class="st0" d="M240.4,179c-0.1,0.7-0.3,1.3-0.5,2c-0.2,0.3-0.5,0.5-0.9,0.5c-0.4,0-0.7-0.3-0.6-0.7c0,0,0-0.1,0-0.1
	c0.1-0.6,0.2-1.2,0.4-1.8c0.2-0.3,0.5-0.5,0.8-0.5C240,178.5,240.2,178.8,240.4,179z"/>
<path class="st0" d="M239.3,183.7c-0.3,0.7-0.6,1.4-1,2.1c-0.2,0.2-0.6,0.2-0.9,0.1c-0.3-0.2-0.4-0.5-0.4-0.8
	c0.1-0.6,0.4-1.2,0.7-1.7c0.2-0.2,0.5-0.4,0.9-0.3C238.9,183.1,239.1,183.4,239.3,183.7z"/>
<path class="st0" d="M235.8,190.2c-0.7,0-1.1-0.5-0.8-1.1c0.2-0.5,0.5-1,0.9-1.5c0.2-0.3,0.5-0.4,0.8-0.3c0,0,0.1,0,0.1,0.1
	c0.3,0.2,0.4,0.6,0.4,0.9c-0.2,0.6-0.5,1.1-0.9,1.6C236.2,190.1,235.9,190.1,235.8,190.2z"/>
<path class="st0" d="M196.2,183.6c0,0.4-0.3,0.8-0.8,0.8c0,0,0,0,0,0c-0.4,0-0.8-0.3-0.8-0.7c0,0,0,0,0,0c0-0.4,0.3-0.8,0.7-0.8
	c0,0,0,0,0.1,0C195.9,182.9,196.2,183.2,196.2,183.6z"/>
<path class="st0" d="M212,206.7c0,0.4-0.4,0.7-0.8,0.7c-0.4,0-0.8-0.3-0.8-0.7c0,0,0-0.1,0-0.1c0-0.4,0.4-0.8,0.9-0.8
	C211.7,205.8,212,206.2,212,206.7z"/>
</svg>
