<?xml version="1.0" encoding="utf-8"?>
<!-- Generator: Adobe Illustrator 26.0.0, SVG Export Plug-In . SVG Version: 6.00 Build 0)  -->
<svg version="1.1" id="Capa_1" xmlns="http://www.w3.org/2000/svg" xmlns:xlink="http://www.w3.org/1999/xlink" x="0px" y="0px"
	 viewBox="0 0 300 300" style="enable-background:new 0 0 300 300;" xml:space="preserve">
<style type="text/css">
	.st0{fill:#4DACCB;}
</style>
<path class="st0" d="M270,31.2c-0.3,1.6-0.7,3.3-1.2,4.8c-2.8,7.6-8.2,12.2-16.2,13.5c-8.1,1.4-14.8-1.5-20-8
	c-0.3-0.3-0.7-0.5-1.1-0.5c-4,0-8,0-12,0c-0.5,0-1,0.2-1.2,0.6c-2.8,3.8-6.8,6.5-11.4,7.6c-7.7,1.8-14.4,0-20-5.6
	c-4.3-4.2-6.4-10.2-5.8-16.2c0.7-8.9,7.1-16.4,15.8-18.4c1.8-0.4,3.7-0.6,5.6-0.6c5.3-0.1,10.7,0,16,0h1.1c0-1.4,0-2.7,0-4
	c0-1.5,0.5-2,2-2c0.8,0,1.5,0,2.3,0c0.2-1.5,0.3-3,0.7-4.4c1.2-4.7,3.4-8.7,7.8-11.2c2.9-1.5,6.2-2.3,9.4-2.2c0.8,0,1.5,0.6,1.6,1.4
	c0,0,0,0.1,0,0.1c0.1,0.8-0.5,1.5-1.3,1.5c0,0-0.1,0-0.1,0c-1.4,0.2-2.7,0.2-4,0.5c-5.2,0.9-8.3,4.1-9.9,9c-0.6,1.7-0.9,3.6-0.9,5.4
	c0.9,0,1.6,0,2.4,0c1.4,0,1.9,0.5,1.9,2s0,2.6,0,4h1.1c5.7,0,11.4-0.1,17,0c6.1,0,11.9,2.9,15.8,7.7c2.5,3,4.1,6.7,4.5,10.5
	c0,0.1,0.1,0.3,0.1,0.4L270,31.2z M225.7,11.4c-7.7,0-15.5,0-23.2,0c-1.3,0-2.7,0.1-4,0.4c-5.7,0.9-10.5,4.6-12.8,9.9
	c-3.6,7.4-1.6,16.3,4.9,21.4c3.7,3.1,8.6,4.5,13.4,3.8c5.1-0.6,9.8-3.4,12.6-7.8c0.4-0.7,1.2-1.1,2-1c4.7,0,9.3,0,14,0
	c0.8,0,1.6,0.3,2,1c0.8,1.2,1.7,2.2,2.8,3.2c7.2,6.7,18.5,6.2,25.1-1c5.8-6.3,6.3-15.8,1.2-22.7c-3.4-4.6-8.8-7.2-14.5-7.1
	C241.3,11.4,233.5,11.4,225.7,11.4z M228.4,5.6h-5.8v2.9h5.8V5.6z"/>
<path class="st0" d="M206.2,33.8c0,1.3,0,2.6,0,3.9s-0.5,1.8-1.8,1.8c-1.8,0-3.5,0-5.3,0c-1.2,0-1.8-0.5-1.8-1.7c0-1.3,0-2.7,0-4.2
	h-4c-1.5,0-2-0.5-2-2c0-1.7,0-3.4,0-5.1c0-1.3,0.5-1.8,1.9-1.8s2.6,0,4.1,0v-3.9c0-1.5,0.5-2,2-2.1c1.6,0,3.3,0,4.9,0
	c1.4,0,1.9,0.5,1.9,2s0,2.6,0,4h3.7c1.8,0,2.2,0.4,2.2,2.2c0,1.6,0,3.1,0,4.7s-0.5,2.1-2.1,2.1h-3.6
	C206.4,33.7,206.4,33.7,206.2,33.8z M200.3,21.8v3.9c0,1.5-0.5,2-2,2h-3.8v2.9c1.3,0,2.6,0,3.9,0c1.5,0,2,0.5,2,2v3.9h3
	c0-1.5,0-2.9,0-4.3c-0.1-0.8,0.5-1.5,1.3-1.6c0,0,0.1,0,0.1,0c0.5,0,0.9,0,1.4,0c1,0,2,0,3,0v-2.8h-3.6c-1.8,0-2.2-0.5-2.2-2.2v-3.7
	L200.3,21.8z"/>
<path class="st0" d="M249.3,26.2c-2.5,0-4.5-1.9-4.5-4.4c0-2.5,1.9-4.5,4.4-4.5c2.5,0,4.5,1.9,4.5,4.4c0.1,2.4-1.9,4.4-4.3,4.5
	C249.4,26.2,249.3,26.2,249.3,26.2z M249.2,20.3c-0.8,0-1.5,0.7-1.4,1.5s0.7,1.5,1.5,1.4c0.8,0,1.5-0.7,1.4-1.5c0,0,0,0,0,0
	C250.6,21,250,20.4,249.2,20.3z"/>
<path class="st0" d="M262.6,29.3c-0.1,2.5-2.1,4.4-4.6,4.3c0,0,0,0,0,0c-2.5-0.1-4.4-2.1-4.3-4.6c0.1-2.5,2.1-4.4,4.6-4.3l0,0
	C260.7,24.8,262.6,26.8,262.6,29.3C262.6,29.3,262.6,29.3,262.6,29.3z M258.2,27.8c-0.8,0-1.4,0.6-1.4,1.4c0,0.8,0.6,1.4,1.4,1.4
	c0.8,0,1.4-0.6,1.4-1.4c0,0,0,0,0,0C259.6,28.4,259,27.8,258.2,27.8z"/>
<path class="st0" d="M244.8,29.2c0.1,2.5-1.8,4.5-4.2,4.7c-2.5,0.1-4.5-1.8-4.7-4.2c0-0.1,0-0.3,0-0.4c0.1-2.5,2.2-4.4,4.7-4.2
	C242.8,25.1,244.7,26.9,244.8,29.2z M240.3,30.6c0.8,0,1.4-0.6,1.5-1.4c0-0.8-0.6-1.4-1.4-1.5c-0.8,0-1.4,0.6-1.5,1.4
	S239.5,30.6,240.3,30.6z"/>
<path class="st0" d="M253.7,36.7c0,2.5-2.1,4.4-4.5,4.4c-2.5,0-4.4-2.1-4.4-4.5c0-2.4,2-4.4,4.5-4.4
	C251.7,32.2,253.7,34.2,253.7,36.7C253.7,36.6,253.7,36.6,253.7,36.7z M249.3,38c0.8,0,1.4-0.7,1.4-1.4c0-0.8-0.7-1.4-1.5-1.4
	c-0.8,0-1.4,0.7-1.4,1.5C247.8,37.4,248.5,38,249.3,38z"/>
<path class="st0" d="M229.9,33.7c-0.5,0-1,0-1.5,0c-0.8,0-1.4-0.7-1.4-1.5c0-0.8,0.6-1.4,1.4-1.4c0,0,0,0,0,0c1,0,2.1,0,3.1,0
	c0.8,0,1.5,0.7,1.5,1.5c0,0.8-0.7,1.4-1.4,1.5C231,33.7,230.4,33.7,229.9,33.7z"/>
<path class="st0" d="M221.1,33.7c-0.5,0-1.1,0-1.6,0c-0.8-0.1-1.3-0.7-1.4-1.5c0-0.8,0.6-1.4,1.4-1.5c1,0,2.1,0,3.1,0
	c0.8,0,1.4,0.7,1.4,1.4c0,0.8-0.6,1.4-1.4,1.5C222.1,33.6,221.6,33.6,221.1,33.7L221.1,33.7z"/>
<path class="st0" d="M119.7,45.3c0.3,1.6,0.6,3.3,0.7,4.9c0.3,8.1-2.9,14.4-9.8,18.7c-7,4.3-14.3,4.2-21.5,0.2
	c-0.4-0.2-0.8-0.2-1.2-0.1c-3.7,1.5-7.4,3-11.1,4.5c-0.4,0.2-0.8,0.5-0.9,1c-1.1,4.6-3.8,8.6-7.7,11.3c-6.4,4.6-13.3,5.5-20.6,2.4
	C42,86.1,37.7,81.5,36,75.7c-2.7-8.5,0.4-17.8,7.6-23c1.5-1.1,3.2-2,5-2.7c4.9-2.1,9.8-4.1,14.8-6.1l1.1-0.4c-0.5-1.3-1-2.5-1.5-3.7
	c-0.5-1.4-0.3-2,1.1-2.6c0.7-0.3,1.4-0.6,2.1-0.9c-0.4-1.5-0.8-2.9-1.1-4.3c-0.7-4.8-0.2-9.4,2.9-13.3c2.1-2.5,4.8-4.5,7.9-5.7
	c0.7-0.4,1.6,0,2,0.7c0,0,0,0,0,0c0.4,0.7,0.1,1.6-0.6,2c0,0-0.1,0-0.1,0c-1.2,0.7-2.4,1.2-3.6,2c-4.4,2.8-6.1,7-5.8,12.1
	c0.1,1.8,0.5,3.6,1.2,5.3c0.8-0.3,1.5-0.6,2.3-0.9c1.3-0.5,2-0.2,2.5,1.1s1,2.4,1.5,3.7l1-0.4c5.2-2.2,10.5-4.4,15.8-6.5
	c9.6-3.7,20.6,0.1,25.7,9.1c0.1,0.1,0.2,0.2,0.3,0.3L119.7,45.3z M71.2,43.9c-7.2,3-14.3,5.9-21.5,8.9c-1.2,0.5-2.4,1.1-3.5,1.8
	c-4.9,3-7.9,8.3-8.1,14c-0.5,8.2,4.7,15.6,12.6,17.8c4.6,1.5,9.7,0.9,13.8-1.5c4.6-2.5,7.7-6.9,8.7-12c0.1-0.8,0.7-1.4,1.4-1.7
	c4.3-1.8,8.6-3.5,12.9-5.3c0.7-0.3,1.6-0.3,2.2,0.2c1.2,0.8,2.5,1.4,3.8,2c9.2,3.4,19.4-1.3,22.9-10.5c3-8-0.2-17.1-7.6-21.4
	C104,33.1,98,32.7,92.8,35C85.6,37.9,78.4,40.9,71.2,43.9z M71.5,37.4l-5.4,2.2l1.1,2.6l2.7-1.1l2.7-1.1L71.5,37.4z"/>
<path class="st0" d="M61.7,72c0.5,1.2,1,2.4,1.5,3.6c0.5,0.7,0.3,1.7-0.4,2.2c-0.2,0.1-0.4,0.2-0.6,0.2c-1.6,0.7-3.3,1.4-4.9,2
	c-0.7,0.4-1.7,0.2-2.1-0.5c-0.1-0.1-0.2-0.3-0.2-0.5c-0.5-1.2-1-2.5-1.6-3.9l-3.7,1.5c-1.4,0.6-2,0.3-2.6-1.1
	c-0.7-1.6-1.3-3.2-2-4.7c-0.5-1.2-0.2-1.9,1-2.4s2.5-1,3.8-1.6c-0.5-1.2-1-2.4-1.5-3.6c-0.5-1.4-0.2-2.1,1.1-2.7s3-1.3,4.6-1.9
	c1.3-0.5,2-0.2,2.5,1.1s1,2.4,1.5,3.7l3.4-1.4c1.7-0.7,2.2-0.4,2.9,1.2c0.6,1.4,1.2,2.9,1.8,4.3s0.3,2.1-1.1,2.7l-3.4,1.4
	C61.9,71.8,61.8,71.9,61.7,72z M51.7,63.2l1.5,3.6c0.6,1.4,0.3,2.1-1.1,2.7l-3.5,1.4l1.1,2.7l3.6-1.5c1.4-0.6,2-0.3,2.6,1.1l1.5,3.6
	l2.7-1.1c-0.5-1.4-1.1-2.7-1.6-4c-0.4-0.7-0.1-1.6,0.6-1.9c0,0,0.1,0,0.1-0.1c0.4-0.2,0.8-0.4,1.3-0.6l2.8-1.1L62,65.3l-3.3,1.4
	c-1.6,0.7-2.2,0.4-2.9-1.2l-1.4-3.4L51.7,63.2z"/>
<path class="st0" d="M98.6,48.6c-2.3,0.9-4.9-0.1-5.8-2.4c-0.9-2.3,0.1-4.9,2.4-5.8c2.3-0.9,4.8,0.1,5.8,2.4c1,2.2,0,4.8-2.2,5.8
	C98.7,48.5,98.7,48.5,98.6,48.6z M96.3,43.1c-0.7,0.3-1.1,1.2-0.8,1.9s1.2,1.1,1.9,0.8c0.7-0.3,1.1-1.2,0.8-1.9c0,0,0,0,0,0
	C97.9,43.2,97,42.9,96.3,43.1z"/>
<path class="st0" d="M112.1,46.4c0.9,2.3-0.3,4.9-2.6,5.8c0,0,0,0,0,0c-2.3,0.8-4.9-0.4-5.7-2.7c-0.8-2.3,0.3-4.8,2.5-5.6
	C108.6,42.9,111.2,44,112.1,46.4C112.1,46.3,112.1,46.4,112.1,46.4z M107.4,46.6c-0.7,0.3-1.1,1.1-0.8,1.8c0.2,0.8,1,1.2,1.7,1.1
	s1.2-1,1.1-1.7c0-0.1-0.1-0.2-0.1-0.3C109,46.7,108.2,46.3,107.4,46.6z"/>
<path class="st0" d="M95.6,53c1,2.2,0,4.9-2.2,5.9s-4.9,0-5.9-2.2c0-0.1-0.1-0.2-0.1-0.3c-0.8-2.3,0.3-4.9,2.6-5.7
	C92.2,49.8,94.6,50.9,95.6,53z M92,56c0.7-0.3,1.1-1.1,0.8-1.8c-0.3-0.7-1.1-1.1-1.9-0.8s-1.1,1.1-0.8,1.9C90.4,56,91.3,56.3,92,56
	L92,56z"/>
<path class="st0" d="M106.7,56.5c0.9,2.3-0.2,4.9-2.5,5.7c-2.3,0.9-4.9-0.2-5.7-2.5c-0.9-2.3,0.2-4.8,2.5-5.7
	C103.1,53.1,105.7,54.2,106.7,56.5C106.6,56.5,106.6,56.5,106.7,56.5z M103.1,59.5c0.7-0.3,1.1-1.1,0.8-1.9c-0.4-0.7-1.2-1-2-0.6
	c-0.7,0.3-1,1.1-0.7,1.8C101.6,59.5,102.4,59.8,103.1,59.5L103.1,59.5z"/>
<path class="st0" d="M83.5,62.8c-0.4,0.2-0.9,0.4-1.4,0.6c-0.7,0.3-1.6-0.1-1.9-0.8c-0.3-0.7,0-1.5,0.7-1.9c0,0,0,0,0,0
	c0.9-0.4,1.9-0.8,2.9-1.2c0.7-0.3,1.6,0.1,1.9,0.8c0.3,0.7,0,1.6-0.8,1.9C84.5,62.5,84,62.6,83.5,62.8z"/>
<path class="st0" d="M75.4,66.2c-0.5,0.2-1,0.4-1.5,0.6C73.1,67,72.3,66.7,72,66c-0.3-0.7,0-1.6,0.8-1.9c0.9-0.4,1.9-0.8,2.9-1.2
	c0.7-0.3,1.6,0.1,1.9,0.8c0.3,0.7,0,1.6-0.7,1.9C76.3,65.9,75.8,66,75.4,66.2L75.4,66.2z"/>
<path class="st0" d="M234.7,129.7c-0.1,1.7-0.3,3.3-0.6,5c-1.8,7.9-6.6,13.2-14.3,15.5c-7.9,2.4-14.9,0.4-20.8-5.3
	c-0.3-0.3-0.8-0.4-1.2-0.4c-4,0.5-7.9,1-11.9,1.5c-0.5,0-0.9,0.3-1.1,0.8c-2.3,4.1-5.9,7.3-10.3,9c-7.4,2.8-14.3,1.8-20.5-3
	c-4.8-3.7-7.7-9.3-7.9-15.4c-0.4-8.9,4.9-17.1,13.3-20.3c1.8-0.6,3.6-1.1,5.5-1.3c5.3-0.8,10.6-1.4,15.9-2.1l1.1-0.1
	c-0.2-1.4-0.4-2.7-0.5-3.9c-0.2-1.4,0.2-2,1.7-2.2c0.8-0.1,1.5-0.2,2.3-0.3c0-1.5-0.1-3,0.1-4.4c0.6-4.8,2.2-9.1,6.3-12.1
	c2.7-1.9,5.8-3.1,9.1-3.4c0.8-0.2,1.6,0.4,1.7,1.2c0,0,0,0,0,0c0.2,0.8-0.4,1.6-1.2,1.7c0,0,0,0-0.1,0c-1.3,0.3-2.7,0.6-4,1
	c-5,1.6-7.7,5.2-8.7,10.2c-0.4,1.8-0.4,3.6-0.1,5.5c0.8-0.1,1.6-0.2,2.4-0.3c1.4-0.2,2,0.3,2.2,1.7s0.3,2.6,0.5,4l1.1-0.1
	c5.6-0.7,11.2-1.6,16.9-2.2c6.1-0.7,12.2,1.3,16.6,5.6c2.9,2.7,4.9,6.1,5.8,9.9c0,0.1,0.1,0.3,0.2,0.4L234.7,129.7z M188.2,115.8
	c-7.7,1-15.3,2-23,3c-1.3,0.2-2.6,0.5-3.9,0.9c-5.5,1.6-9.8,5.9-11.4,11.4c-2.6,7.8,0.5,16.3,7.6,20.5c4.1,2.6,9.1,3.4,13.8,2.1
	c5-1.2,9.2-4.6,11.5-9.3c0.3-0.7,1-1.2,1.8-1.3c4.6-0.6,9.2-1.2,13.9-1.8c0.8-0.1,1.6,0.1,2.1,0.7c1,1.1,2,2,3.1,2.9
	c8,5.6,19.1,3.7,24.8-4.4c4.9-7,4.1-16.4-1.8-22.5c-3.9-4.1-9.6-6-15.3-5.2C203.6,113.7,195.9,114.8,188.2,115.8z M190.2,109.6
	l-5.8,0.8l0.4,2.8l2.9-0.4l2.9-0.4L190.2,109.6z"/>
<path class="st0" d="M171.8,140.5c0.2,1.3,0.3,2.6,0.5,3.9s-0.3,1.9-1.6,2.1l-5.2,0.7c-0.8,0.3-1.7-0.2-1.9-1
	c-0.1-0.2-0.1-0.3-0.1-0.5c-0.2-1.3-0.4-2.7-0.5-4.1L159,142c-1.5,0.2-2-0.2-2.2-1.7c-0.2-1.7-0.5-3.4-0.7-5.1
	c-0.2-1.3,0.3-1.9,1.6-2.1s2.6-0.4,4.1-0.5c-0.2-1.3-0.3-2.6-0.5-3.9c-0.2-1.5,0.2-2.1,1.7-2.3c1.6-0.2,3.3-0.4,4.9-0.6
	c1.4-0.2,2,0.3,2.2,1.7s0.3,2.6,0.5,4l3.7-0.5c1.8-0.2,2.3,0.1,2.5,1.9l0.6,4.6c0.2,1.6-0.2,2.1-1.8,2.3l-3.6,0.5
	C171.9,140.4,171.9,140.4,171.8,140.5z M164.3,129.4c0.2,1.3,0.3,2.6,0.5,3.8c0.2,1.5-0.3,2.1-1.8,2.3l-3.8,0.5l0.4,2.9
	c1.3-0.2,2.6-0.3,3.8-0.5c1.5-0.2,2.1,0.2,2.3,1.8c0.2,1.3,0.3,2.6,0.5,3.8l2.9-0.4c-0.2-1.4-0.4-2.9-0.6-4.3
	c-0.2-0.8,0.3-1.5,1.1-1.7c0.1,0,0.1,0,0.2,0c0.4-0.1,0.9-0.1,1.4-0.2l2.9-0.4l-0.4-2.9l-3.6,0.5c-1.8,0.2-2.3-0.2-2.5-1.9
	c-0.2-1.2-0.3-2.4-0.5-3.7L164.3,129.4z"/>
<path class="st0" d="M213.5,127.4c-2.4,0.3-4.7-1.3-5-3.8s1.3-4.7,3.8-5c2.4-0.3,4.7,1.3,5,3.8c0,0,0,0,0,0
	C217.6,124.8,215.9,127.1,213.5,127.4C213.5,127.4,213.5,127.4,213.5,127.4z M212.6,121.6c-0.8,0.1-1.4,0.9-1.2,1.7s0.9,1.4,1.7,1.2
	s1.4-0.9,1.2-1.7c0,0,0,0,0,0C214.1,122,213.4,121.5,212.6,121.6z"/>
<path class="st0" d="M227.1,128.8c0.2,2.5-1.5,4.6-4,4.9c0,0,0,0,0,0c-2.5,0.2-4.6-1.5-4.9-4s1.5-4.6,4-4.9
	C224.6,124.5,226.8,126.3,227.1,128.8C227,128.7,227,128.8,227.1,128.8z M222.5,127.8c-0.8,0.1-1.3,0.8-1.3,1.6
	c0.1,0.8,0.8,1.3,1.5,1.3c0,0,0,0,0,0c0.8-0.1,1.4-0.7,1.3-1.5c0,0,0,0,0-0.1C223.9,128.3,223.2,127.7,222.5,127.8L222.5,127.8z"/>
<path class="st0" d="M209.4,131c0.4,2.4-1.3,4.7-3.8,5c-2.4,0.4-4.7-1.3-5-3.8c0-0.1,0-0.1,0-0.2c-0.3-2.4,1.5-4.6,4-4.9
	C206.9,127,209.1,128.6,209.4,131z M205.1,133c0.8-0.1,1.3-0.8,1.3-1.6c-0.1-0.8-0.8-1.4-1.6-1.3c-0.8,0.1-1.4,0.8-1.3,1.6
	c0,0,0,0.1,0,0.1C203.7,132.5,204.4,133,205.1,133L205.1,133z"/>
<path class="st0" d="M219.2,137.2c0.3,2.4-1.5,4.6-3.9,4.9s-4.6-1.5-4.9-3.9c-0.3-2.4,1.4-4.5,3.8-4.9
	C216.6,133,218.8,134.7,219.2,137.2C219.2,137.1,219.2,137.2,219.2,137.2z M215,139.1c0.8-0.1,1.3-0.8,1.2-1.6
	c-0.1-0.8-0.9-1.3-1.7-1.2c-0.8,0.1-1.3,0.9-1.2,1.7C213.5,138.7,214.2,139.3,215,139.1z"/>
<path class="st0" d="M195.2,137.3c-0.5,0.1-1,0.2-1.5,0.2c-0.8,0.1-1.5-0.5-1.6-1.3c-0.1-0.8,0.4-1.5,1.2-1.6c0,0,0,0,0,0
	c1-0.2,2.1-0.3,3.1-0.4c0.8-0.1,1.5,0.5,1.6,1.3c0.1,0.8-0.5,1.5-1.2,1.6C196.3,137.2,195.7,137.2,195.2,137.3z"/>
<path class="st0" d="M186.4,138.4c-0.5,0.1-1.1,0.2-1.6,0.2c-0.8,0-1.4-0.5-1.5-1.3c-0.1-0.8,0.4-1.5,1.2-1.6c1-0.2,2.1-0.3,3.1-0.4
	c0.8-0.1,1.5,0.5,1.6,1.2c0.1,0.8-0.4,1.5-1.2,1.7C187.5,138.3,187,138.4,186.4,138.4L186.4,138.4z"/>
<path class="st0" d="M136.5,206.1c-0.1,1.7-0.3,3.3-0.6,5c-1.8,7.9-6.6,13.2-14.3,15.5c-7.9,2.4-14.9,0.4-20.8-5.3
	c-0.3-0.3-0.8-0.4-1.2-0.4c-4,0.5-7.9,1-11.9,1.5c-0.5,0-0.9,0.3-1.1,0.8c-2.3,4.1-5.9,7.3-10.3,9c-7.4,2.8-14.3,1.8-20.5-3
	c-4.8-3.7-7.7-9.3-7.9-15.3c-0.4-8.9,4.9-17.1,13.3-20.3c1.8-0.6,3.6-1.1,5.5-1.3c5.3-0.8,10.6-1.4,15.8-2.1l1.1-0.1
	c-0.2-1.4-0.3-2.7-0.5-3.9c-0.2-1.4,0.2-2,1.7-2.2c0.7-0.1,1.5-0.2,2.2-0.3c0-1.5-0.1-3,0.1-4.4c0.5-4.8,2.2-9.1,6.3-12.1
	c2.7-1.9,5.8-3.1,9.1-3.4c0.8-0.2,1.6,0.4,1.7,1.2c0,0,0,0,0,0c0.2,0.8-0.3,1.5-1.1,1.7c0,0-0.1,0-0.1,0c-1.3,0.4-2.7,0.6-3.9,1
	c-5,1.6-7.7,5.2-8.7,10.2c-0.4,1.8-0.4,3.6-0.2,5.4c0.8-0.1,1.6-0.2,2.4-0.3c1.4-0.2,2,0.3,2.2,1.7s0.3,2.6,0.5,4l1.1-0.1
	c5.6-0.7,11.2-1.6,16.9-2.2c6.1-0.7,12.2,1.3,16.6,5.6c2.9,2.7,4.9,6.1,5.8,9.9c0.1,0.1,0.1,0.3,0.2,0.4L136.5,206.1z M90,192.1
	c-7.7,1-15.3,2-23,3c-1.3,0.2-2.6,0.4-3.9,0.9c-5.5,1.6-9.8,5.9-11.4,11.4c-2.6,7.8,0.5,16.3,7.6,20.5c4.1,2.6,9.1,3.4,13.7,2.1
	c5-1.2,9.3-4.7,11.5-9.3c0.3-0.7,1-1.2,1.8-1.3c4.6-0.6,9.2-1.2,13.9-1.8c0.8-0.1,1.6,0.1,2.1,0.7c1,1,2,2,3.2,2.9
	c8,5.6,19.1,3.7,24.8-4.3c4.9-7,4.2-16.4-1.8-22.6c-4-4.1-9.6-6-15.3-5.2C105.4,190.1,97.7,191.1,90,192.1z M92,186l-5.8,0.8
	l0.4,2.8l2.9-0.4l2.9-0.4L92,186z"/>
<path class="st0" d="M73.6,216.8c0.2,1.3,0.3,2.6,0.5,3.9s-0.3,1.9-1.6,2.1c-1.8,0.2-3.5,0.5-5.2,0.7c-0.8,0.3-1.7-0.2-1.9-1
	c-0.1-0.2-0.1-0.3-0.1-0.5c-0.2-1.4-0.3-2.7-0.5-4.1l-3.9,0.5c-1.5,0.2-2-0.2-2.2-1.7c-0.2-1.7-0.5-3.4-0.7-5.1
	c-0.2-1.3,0.3-1.9,1.6-2.1s2.6-0.4,4-0.5c-0.2-1.4-0.3-2.6-0.5-3.9c-0.2-1.5,0.2-2.1,1.7-2.3c1.5-0.2,3.3-0.4,4.9-0.6
	c1.4-0.2,2,0.3,2.2,1.7s0.3,2.6,0.5,4l3.7-0.5c1.8-0.2,2.2,0.1,2.5,1.9c0.2,1.5,0.4,3.1,0.6,4.6s-0.1,2.1-1.8,2.3l-3.6,0.5
	C73.8,216.7,73.7,216.7,73.6,216.8z M66.1,205.7c0.2,1.3,0.3,2.6,0.5,3.9c0.2,1.5-0.3,2.1-1.8,2.3l-3.8,0.5l0.4,2.9l3.8-0.5
	c1.5-0.2,2,0.2,2.3,1.8c0.2,1.3,0.3,2.6,0.5,3.8l2.9-0.4c-0.2-1.4-0.4-2.9-0.6-4.2c-0.2-0.8,0.3-1.6,1.1-1.7c0.1,0,0.1,0,0.2,0
	c0.4-0.1,0.9-0.1,1.4-0.2l3-0.4l-0.4-2.9l-3.6,0.5c-1.8,0.2-2.3-0.2-2.5-1.9l-0.5-3.7L66.1,205.7z"/>
<path class="st0" d="M115.3,203.8c-2.4,0.3-4.7-1.3-5-3.8c-0.3-2.4,1.3-4.7,3.8-5c2.4-0.3,4.7,1.3,5,3.8c0,0,0,0,0,0
	c0.4,2.4-1.3,4.6-3.7,5C115.3,203.7,115.3,203.7,115.3,203.8z M114.4,197.9c-0.8,0.1-1.4,0.8-1.3,1.6c0.1,0.8,0.8,1.4,1.6,1.3
	s1.4-0.8,1.3-1.6C116,198.4,115.3,197.8,114.4,197.9z"/>
<path class="st0" d="M128.9,205.1c0.2,2.5-1.5,4.6-4,4.9c0,0,0,0,0,0c-2.4,0.2-4.6-1.6-4.9-4c-0.1-2.5,1.8-4.6,4.2-4.7
	C126.5,201.2,128.5,202.9,128.9,205.1L128.9,205.1z M124.3,204.1c-0.8,0.1-1.3,0.8-1.2,1.6c0.1,0.8,0.8,1.3,1.6,1.2
	c0.8-0.1,1.3-0.8,1.2-1.6c0,0,0,0,0,0C125.8,204.6,125.1,204.1,124.3,204.1L124.3,204.1z"/>
<path class="st0" d="M111.2,207.3c0.3,2.4-1.4,4.7-3.8,5c-2.4,0.3-4.7-1.4-5-3.8c0,0,0-0.1,0-0.1c-0.3-2.4,1.5-4.6,3.9-4.9
	C108.7,203.2,110.9,204.9,111.2,207.3z M106.9,209.3c0.8-0.1,1.3-0.8,1.2-1.6s-0.8-1.3-1.6-1.2c-0.8,0.1-1.3,0.8-1.2,1.6
	C105.5,208.8,106.2,209.4,106.9,209.3C107,209.3,107,209.3,106.9,209.3L106.9,209.3z"/>
<path class="st0" d="M121,213.5c0.3,2.4-1.5,4.6-3.9,4.9c-2.4,0.3-4.6-1.5-4.9-3.9c-0.3-2.4,1.4-4.5,3.8-4.9
	C118.4,209.3,120.7,211,121,213.5C121,213.5,121,213.5,121,213.5z M116.8,215.5c0.8-0.1,1.3-0.8,1.2-1.6c-0.1-0.8-0.9-1.3-1.7-1.2
	c0,0,0,0-0.1,0c-0.8,0.1-1.3,0.9-1.2,1.6C115.3,215.1,116,215.6,116.8,215.5L116.8,215.5z"/>
<path class="st0" d="M97,213.6c-0.5,0.1-1,0.2-1.5,0.2c-0.8,0.1-1.5-0.5-1.6-1.3c-0.1-0.8,0.4-1.5,1.2-1.6c0,0,0,0,0,0
	c1-0.2,2.1-0.3,3.1-0.4c0.8-0.1,1.5,0.5,1.6,1.3c0.1,0.8-0.5,1.5-1.2,1.6C98.1,213.5,97.5,213.6,97,213.6z"/>
<path class="st0" d="M88.2,214.8c-0.5,0.1-1.1,0.2-1.6,0.2c-0.8,0-1.4-0.5-1.5-1.3c-0.1-0.8,0.4-1.5,1.2-1.6c1-0.2,2-0.3,3.1-0.4
	c0.8-0.1,1.5,0.5,1.6,1.3c0,0,0,0,0,0c0.1,0.8-0.4,1.5-1.2,1.7C89.3,214.7,88.8,214.7,88.2,214.8L88.2,214.8z"/>
<path class="st0" d="M268.7,229.9c-0.1,1.7-0.3,3.3-0.6,5c-1.8,7.9-6.6,13.2-14.3,15.5c-7.9,2.4-14.9,0.4-20.8-5.3
	c-0.3-0.3-0.8-0.4-1.2-0.4c-4,0.5-7.9,1-11.9,1.5c-0.5,0-0.9,0.3-1.1,0.8c-2.3,4.1-5.9,7.3-10.3,9c-7.4,2.8-14.3,1.8-20.5-3
	c-4.8-3.7-7.7-9.3-7.9-15.4c-0.4-8.9,4.9-17.1,13.3-20.3c1.8-0.6,3.6-1.1,5.5-1.3c5.3-0.8,10.6-1.4,15.9-2.1l1.1-0.1
	c-0.2-1.4-0.4-2.7-0.5-3.9c-0.2-1.4,0.2-2,1.7-2.2l2.3-0.3c0-1.5-0.1-3,0.1-4.4c0.6-4.8,2.2-9.1,6.3-12.1c2.7-1.9,5.8-3.1,9.1-3.4
	c0.8-0.2,1.6,0.4,1.7,1.2c0,0,0,0,0,0c0.2,0.8-0.4,1.5-1.1,1.7c0,0,0,0-0.1,0c-1.3,0.3-2.7,0.6-3.9,1c-5,1.6-7.7,5.2-8.7,10.2
	c-0.4,1.8-0.4,3.6-0.1,5.4c0.8-0.1,1.6-0.2,2.4-0.3c1.4-0.2,2,0.3,2.2,1.7s0.3,2.6,0.5,4l1.1-0.1c5.6-0.7,11.2-1.6,16.9-2.2
	c6.1-0.7,12.2,1.3,16.6,5.6c2.9,2.7,4.9,6.1,5.8,9.9c0,0.1,0.1,0.3,0.2,0.4L268.7,229.9z M222.2,215.9c-7.7,1-15.3,2-23,3
	c-1.3,0.2-2.6,0.5-3.9,0.9c-5.5,1.6-9.8,5.9-11.4,11.4c-2.6,7.8,0.5,16.3,7.6,20.5c4.1,2.6,9.1,3.4,13.8,2.1c5-1.2,9.2-4.6,11.5-9.3
	c0.3-0.7,1-1.2,1.8-1.3c4.6-0.6,9.2-1.2,13.9-1.8c0.8-0.1,1.6,0.1,2.1,0.7c1,1.1,2,2,3.1,2.9c8,5.6,19.1,3.7,24.8-4.4
	c4.9-7,4.1-16.4-1.8-22.5c-3.9-4.1-9.6-6-15.3-5.2C237.6,213.9,229.9,214.9,222.2,215.9z M224.2,209.7l-5.8,0.8l0.4,2.8l2.9-0.4
	l2.9-0.4L224.2,209.7z"/>
<path class="st0" d="M205.8,240.6c0.2,1.3,0.3,2.6,0.5,3.9s-0.3,1.9-1.6,2.1l-5.2,0.7c-0.8,0.3-1.7-0.2-1.9-1
	c-0.1-0.2-0.1-0.3-0.1-0.5c-0.2-1.3-0.4-2.7-0.5-4.1l-3.9,0.5c-1.5,0.2-2-0.2-2.2-1.7c-0.2-1.7-0.5-3.4-0.7-5.1
	c-0.2-1.3,0.3-1.9,1.6-2.1s2.6-0.4,4.1-0.5c-0.2-1.3-0.4-2.6-0.5-3.9c-0.2-1.5,0.2-2.1,1.7-2.3s3.3-0.4,4.9-0.6
	c1.4-0.2,2,0.3,2.2,1.7s0.3,2.6,0.5,4l3.7-0.5c1.8-0.2,2.3,0.1,2.5,1.9c0.2,1.6,0.4,3.1,0.6,4.6s-0.2,2.1-1.8,2.3l-3.6,0.5
	C206,240.5,205.9,240.5,205.8,240.6z M198.4,229.5c0.2,1.3,0.3,2.6,0.5,3.8c0.2,1.5-0.3,2.1-1.8,2.3l-3.8,0.5l0.4,2.9l3.8-0.5
	c1.5-0.2,2.1,0.2,2.3,1.8c0.2,1.3,0.3,2.6,0.5,3.8l2.9-0.4c-0.2-1.5-0.4-2.9-0.6-4.2c-0.2-0.8,0.3-1.5,1.1-1.7c0.1,0,0.1,0,0.2,0
	c0.4-0.1,0.9-0.1,1.4-0.2l3-0.4l-0.4-2.9l-3.6,0.5c-1.7,0.2-2.3-0.2-2.5-1.9c-0.2-1.2-0.3-2.4-0.5-3.7L198.4,229.5z"/>
<path class="st0" d="M247.5,227.5c-2.4,0.3-4.7-1.3-5-3.8s1.3-4.7,3.8-5c2.4-0.3,4.7,1.3,5,3.8c0,0,0,0,0,0
	C251.6,224.9,250,227.2,247.5,227.5C247.5,227.5,247.5,227.5,247.5,227.5z M246.7,221.7c-0.8,0.1-1.4,0.9-1.2,1.7s0.9,1.4,1.7,1.2
	s1.4-0.9,1.2-1.7c0,0,0,0,0,0C248.2,222.1,247.5,221.6,246.7,221.7L246.7,221.7z"/>
<path class="st0" d="M261.1,228.9c0.2,2.4-1.6,4.6-4,4.9c-2.4,0.2-4.6-1.6-4.9-4c-0.2-2.4,1.5-4.6,4-4.9
	C258.7,224.7,260.8,226.4,261.1,228.9z M256.5,227.9c-0.8,0.1-1.3,0.8-1.3,1.6c0.1,0.8,0.8,1.4,1.5,1.3c0,0,0,0,0,0
	c0.8-0.1,1.4-0.7,1.3-1.5c0,0,0,0,0-0.1C258,228.4,257.3,227.8,256.5,227.9L256.5,227.9z"/>
<path class="st0" d="M243.4,231.1c0.3,2.4-1.4,4.7-3.9,5s-4.7-1.4-5-3.9s1.4-4.7,3.9-5S243.1,228.6,243.4,231.1L243.4,231.1z
	 M239.2,233.1c0.8-0.1,1.3-0.8,1.3-1.6c-0.1-0.8-0.8-1.4-1.6-1.3s-1.4,0.8-1.3,1.6C237.6,232.5,238.3,233.1,239.2,233.1
	C239.2,233.1,239.2,233.1,239.2,233.1z"/>
<path class="st0" d="M253.2,237.3c0.3,2.4-1.5,4.6-3.9,4.9s-4.6-1.5-4.9-3.9c-0.3-2.4,1.4-4.6,3.8-4.9
	C250.7,233.1,252.9,234.8,253.2,237.3C253.2,237.3,253.2,237.3,253.2,237.3z M249,239.3c0.8-0.1,1.3-0.8,1.2-1.6
	c-0.1-0.8-0.9-1.3-1.7-1.2c-0.8,0.1-1.3,0.9-1.2,1.7l0,0C247.5,238.9,248.2,239.4,249,239.3z"/>
<path class="st0" d="M229.2,237.4c-0.5,0.1-1,0.2-1.5,0.2c-0.8,0.1-1.5-0.5-1.6-1.3c-0.1-0.8,0.4-1.5,1.2-1.6c0,0,0,0,0,0
	c1-0.2,2.1-0.3,3.1-0.4c0.8-0.1,1.5,0.5,1.6,1.3c0.1,0.8-0.5,1.5-1.2,1.7C230.3,237.3,229.8,237.4,229.2,237.4z"/>
<path class="st0" d="M220.5,238.5c-0.5,0.1-1.1,0.2-1.6,0.2c-0.8,0-1.4-0.5-1.5-1.3c-0.1-0.8,0.4-1.5,1.2-1.6c1-0.2,2.1-0.3,3.1-0.4
	c0.8-0.1,1.5,0.5,1.6,1.2c0.1,0.8-0.4,1.5-1.2,1.7C221.5,238.4,221,238.5,220.5,238.5L220.5,238.5z"/>
</svg>
