<?xml version="1.0" encoding="utf-8"?>
<!-- Generator: Adobe Illustrator 26.0.0, SVG Export Plug-In . SVG Version: 6.00 Build 0)  -->
<svg version="1.1" id="Capa_1" xmlns="http://www.w3.org/2000/svg" xmlns:xlink="http://www.w3.org/1999/xlink" x="0px" y="0px"
	 viewBox="0 0 300 300" style="enable-background:new 0 0 300 300;" xml:space="preserve">
<style type="text/css">
	.st0{fill:#C1A24B;}
</style>
<path class="st0" d="M204.2,43.1c4-3.7,8.8-4.2,13.8-4c4.7,0.2,9.4,0,14.1,0c0.5-0.1,1.1-0.1,1.6,0.1c2,1.1,3.1-0.1,4.2-1.4
	c1.4-1.5,2.8-2.8,4.2-4.2c2.4-2.3,3.9-2.5,6.8-0.9c1.8-1.9,3.9-3,6.6-2c2.7,0.9,4.2,3.9,3.2,6.6c-0.2,0.7-0.6,1.4-1.2,1.9
	c-5.9,6-11.9,12-18,17.9c-2.9,2.8-6.6,3.8-10.6,3.7c-6.2-0.1-12.3,0.2-18.5,0.3c-1.2,0-2.4,0.2-3.5,0.1c-1.8-0.1-3.2,0.1-4.5,1.7
	c-1.6,2-9.5,1.9-11.2-0.1c-0.9-0.9-1.4-2.1-1.5-3.4c-0.2-5.2-0.1-10.5,0-15.7c0.1-3,2-4.7,5-4.8c1.4,0,2.8,0,4.2,0
	C201.8,39,203.1,40,204.2,43.1z M204.2,58.9h2.2c7.5-0.1,14.9-0.4,22.4-0.4c3.9,0.2,7.7-1.3,10.5-4.1l13.2-13.2
	c1.2-1.2,2.4-2.3,3.5-3.5c0.9-1,1-2.5,0.2-3.6c-0.7-1.2-2.1-1.7-3.4-1.2c-0.8,0.3-1.5,0.8-2,1.4c-4.5,4.5-8.9,9-13.5,13.5
	c-0.9,1-2.2,1.7-3.6,1.9c-4.8,0.2-9.5,0.1-14.3,0c-0.5,0-1-0.7-1.5-1.1c0.4-0.4,0.9-0.8,1.4-1.2c0.3-0.2,0.8,0,1.2,0
	c4.1,0,8.2,0.1,12.3,0.1c1.5,0.1,2.9-1,3-2.5c0-0.1,0-0.3,0-0.4c0-1.6-1.3-2.8-2.8-2.8c-0.1,0-0.1,0-0.2,0c-6.5,0-13.1-0.1-19.6,0
	c-3.4,0.2-6.5,1.8-8.7,4.4c-0.3,0.3-0.4,0.7-0.5,1.1C204.2,50.9,204.2,54.8,204.2,58.9L204.2,58.9z M192,51.5c0,2.5,0,5,0,7.6
	c0,2,0.8,2.8,2.8,2.9c1.4,0,2.8,0,4.2,0c1.8-0.1,2.7-0.8,2.7-2.6c0.1-5.2,0.1-10.3,0-15.5c0.1-1.2-0.8-2.4-2-2.5c-0.2,0-0.4,0-0.5,0
	c-1.4,0-2.8,0-4.2,0c-2.1,0-2.9,0.8-2.9,2.8C192,46.7,192,49.1,192,51.5z M246.8,34.3c-0.9-0.7-1.8-0.3-2.6,0.5
	c-1.9,1.9-3.7,3.7-5.6,5.6c-1.1,1.2-1.1,1.2-0.2,2.5C241.2,40,244,37.2,246.8,34.3L246.8,34.3z"/>
<path class="st0" d="M225.2,7.3c3.1-4.3,7.6-5.3,11.9-2.9c3.4,2,5,5.6,3.5,9.3c-0.9,2.5-2.2,4.9-3.9,7c-3.2,3.4-6.6,6.7-10.1,9.7
	c-0.7,0.5-1.5,0.6-2.3,0.3c-6.1-4.2-11.4-9.3-14.2-16.4c-1.4-3.5-0.1-7.4,3-9.5c3-2.2,7.2-2.2,10.1,0.2
	C223.9,5.8,224.6,6.5,225.2,7.3z M225.2,28.6c1.7-1.4,3.3-2.7,4.8-4.1c3.4-3.2,6.6-6.6,8.2-11.1c0.4-1.1,0.6-2.2,0.4-3.4
	c-0.4-2.6-2.9-4.4-5.8-4.5c-3.2-0.1-5.1,1.3-6.1,4.4c-0.2,0.7-0.9,1.7-1.5,1.8c-1.2,0.3-1.3-1-1.6-1.9c-0.9-3.2-3.6-4.8-6.6-4.2
	c-4.4,0.9-6.2,4.4-4.4,8.5C215.2,20.3,219.9,24.6,225.2,28.6z"/>
<path class="st0" d="M232.3,7.3c2.8-0.1,5.1,2.1,5.1,4.4c0,0.5-0.6,1.1-1,1.6c-0.5-0.4-1.2-0.8-1.3-1.3c-0.2-1.3-1.2-2.3-2.5-2.5
	c-0.5-0.2-0.9-0.7-1.1-1.2C231.5,7.9,232.2,7.5,232.3,7.3z"/>
<path class="st0" d="M61.7,78.5c4-3.7,8.8-4.2,13.8-4c4.7,0.2,9.4,0,14.1,0.1c0.5,0,1.2-0.2,1.6,0.1c2,1.1,3.1-0.1,4.2-1.4
	c1.4-1.5,2.8-2.8,4.2-4.2c2.4-2.3,3.9-2.6,6.8-0.9c1.8-1.9,3.9-3,6.6-2c2.7,0.9,4.2,3.9,3.2,6.6c-0.2,0.7-0.6,1.4-1.2,1.9
	c-5.9,6.1-11.9,12.1-18,17.9c-2.9,2.8-6.6,3.8-10.7,3.8c-6.2-0.1-12.3,0.2-18.5,0.3c-1.2,0-2.3,0.2-3.5,0.1
	c-1.8-0.1-3.2,0.1-4.5,1.7c-1.6,2-9.5,1.9-11.2-0.1c-0.9-0.9-1.4-2.1-1.5-3.4c-0.2-5.2-0.2-10.5,0-15.7c0.1-3,2-4.7,5-4.8
	c1.4,0,2.8,0,4.2,0C59.3,74.5,60.6,75.4,61.7,78.5z M61.7,94.3h2.2c7.5-0.1,14.9-0.4,22.4-0.4c3.9,0.2,7.7-1.3,10.5-4.1L110,76.6
	c1.2-1.2,2.4-2.3,3.5-3.5c0.9-1,1-2.5,0.2-3.6c-0.7-1.2-2.1-1.7-3.4-1.2c-0.8,0.3-1.5,0.8-2,1.4c-4.5,4.5-8.9,9-13.5,13.4
	c-1,1-2.2,1.7-3.6,1.9c-4.8,0.2-9.5,0.1-14.3,0c-0.5,0-1-0.7-1.5-1.1c0.4-0.5,0.9-0.9,1.4-1.2c0.3-0.2,0.8,0,1.2,0
	c4.1,0,8.2,0.1,12.3,0.1c1.5,0.1,2.9-1,3-2.5c0-0.1,0-0.3,0-0.4c0-1.6-1.3-2.8-2.8-2.8c-0.1,0-0.1,0-0.2,0c-6.5,0-13-0.1-19.6,0
	c-3.4,0.2-6.6,1.8-8.7,4.4c-0.3,0.3-0.4,0.7-0.5,1.1C61.7,86.3,61.7,90.2,61.7,94.3L61.7,94.3z M49.6,86.9c0,2.5,0,5,0,7.6
	c0,2,0.8,2.8,2.8,2.9c1.4,0.1,2.8,0.1,4.2,0c1.8-0.1,2.7-0.8,2.7-2.6c0.1-5.2,0-10.3,0-15.5c0.1-1.2-0.8-2.4-2-2.5
	c-0.2,0-0.3,0-0.5,0c-1.4,0-2.8,0-4.2,0c-2.1,0-2.9,0.8-2.9,2.9C49.5,82.1,49.6,84.5,49.6,86.9L49.6,86.9z M104.4,69.7
	c-0.9-0.7-1.8-0.3-2.6,0.5l-5.6,5.6C95,77,95,77,95.9,78.3L104.4,69.7z"/>
<path class="st0" d="M82.8,42.7c3.2-4.3,7.6-5.3,11.9-2.9c3.4,2,5,5.6,3.5,9.3c-0.9,2.5-2.2,4.9-3.9,7c-3.2,3.4-6.6,6.7-10.1,9.7
	c-0.7,0.5-1.5,0.6-2.3,0.3c-6.1-4.2-11.4-9.3-14.2-16.4c-1.4-3.5-0.1-7.4,3-9.5c3-2.2,7.2-2.2,10.2,0.2
	C81.5,41.2,82.1,41.9,82.8,42.7z M82.7,64c1.7-1.4,3.3-2.7,4.8-4.1c3.4-3.2,6.5-6.6,8.2-11.1c0.4-1.1,0.6-2.2,0.4-3.4
	c-0.4-2.6-2.9-4.4-5.8-4.5c-3.2-0.1-5.1,1.3-6.2,4.5c-0.2,0.7-0.9,1.7-1.5,1.8c-1.2,0.3-1.3-0.9-1.6-1.8c-1-3.2-3.6-4.8-6.6-4.2
	c-4.4,1-6.2,4.4-4.4,8.5C72.8,55.8,77.4,60,82.7,64z"/>
<path class="st0" d="M89.9,42.7c2.8-0.1,5.1,2.1,5.1,4.4c0,0.5-0.6,1.1-1,1.6c-0.5-0.4-1.2-0.8-1.3-1.3c-0.2-1.3-1.2-2.3-2.5-2.5
	c-0.5-0.2-0.9-0.7-1.1-1.2C89,43.3,89.7,42.9,89.9,42.7z"/>
<path class="st0" d="M203.4,153.4c4-3.7,8.8-4.2,13.8-4c4.7,0.2,9.4,0,14.1,0c0.5-0.1,1.1-0.1,1.6,0.1c2,1.1,3.1-0.1,4.3-1.4
	c1.4-1.5,2.8-2.8,4.2-4.2c2.4-2.3,3.9-2.6,6.8-0.9c1.8-1.9,3.9-3,6.6-2c2.7,0.9,4.2,3.9,3.2,6.6c-0.2,0.7-0.6,1.4-1.2,1.9
	c-5.9,6.1-11.9,12.1-18,17.9c-2.9,2.8-6.6,3.8-10.6,3.8c-6.2-0.1-12.3,0.2-18.5,0.3c-1.2,0-2.4,0.2-3.5,0.1c-1.8,0-3.2,0.1-4.5,1.7
	c-1.6,2-9.5,1.9-11.2-0.1c-0.9-0.9-1.4-2.1-1.5-3.4c-0.2-5.2-0.1-10.4-0.1-15.7c0.1-3,2-4.7,5-4.8c1.4,0,2.8,0,4.2,0
	C201,149.4,202.3,150.3,203.4,153.4z M203.4,169.2c0.9,0,1.5,0,2.2,0c7.5-0.1,14.9-0.4,22.4-0.4c3.9,0.2,7.7-1.3,10.5-4.1l13.2-13.2
	c1.2-1.2,2.4-2.3,3.4-3.5c0.9-1,1-2.5,0.2-3.6c-0.7-1.2-2.1-1.7-3.4-1.2c-0.8,0.3-1.5,0.8-2,1.4c-4.5,4.5-8.9,9-13.5,13.4
	c-0.9,1-2.2,1.7-3.6,1.9c-4.8,0.2-9.5,0.1-14.3,0c-0.5,0-1-0.7-1.5-1.1c0.4-0.4,0.9-0.9,1.4-1.2c0.4-0.1,0.8-0.1,1.2,0
	c4.1,0,8.2,0.1,12.3,0.1c1.5,0.1,2.9-1,3-2.5c0-0.1,0-0.3,0-0.4c0-1.6-1.3-2.8-2.8-2.8c-0.1,0-0.1,0-0.2,0c-6.5,0-13-0.1-19.6,0
	c-3.4,0.2-6.6,1.8-8.7,4.4c-0.3,0.3-0.4,0.7-0.5,1.1C203.4,161.2,203.4,165.1,203.4,169.2L203.4,169.2z M191.3,161.8
	c0,2.5,0,5,0,7.6c0,2,0.8,2.8,2.8,2.9c1.4,0.1,2.8,0.1,4.2,0c1.8-0.1,2.7-0.8,2.7-2.6c0.1-5.1,0-10.3,0-15.5c0.1-1.2-0.8-2.4-2-2.5
	c-0.2,0-0.3,0-0.5,0c-1.4,0-2.8,0-4.2,0c-2.1,0-2.9,0.8-2.9,2.9C191.2,157,191.3,159.4,191.3,161.8L191.3,161.8z M246.1,144.6
	c-0.9-0.7-1.8-0.3-2.6,0.5l-5.6,5.6c-1.1,1.1-1.1,1.1-0.2,2.5L246.1,144.6z"/>
<path class="st0" d="M224.5,117.6c3.1-4.3,7.6-5.3,11.9-2.9c3.4,2,5,5.6,3.5,9.3c-0.9,2.5-2.2,4.9-3.9,7c-3.2,3.4-6.6,6.7-10.1,9.7
	c-0.7,0.5-1.5,0.6-2.3,0.4c-6.1-4.2-11.4-9.3-14.2-16.4c-1.4-3.5-0.1-7.4,3-9.5c3-2.2,7.2-2.2,10.1,0.2
	C223.2,116.1,223.8,116.8,224.5,117.6z M224.4,138.9c1.7-1.4,3.3-2.7,4.8-4.1c3.4-3.2,6.5-6.6,8.2-11.1c0.4-1.1,0.6-2.2,0.4-3.4
	c-0.4-2.6-2.9-4.4-5.8-4.5c-3.2-0.1-5.1,1.3-6.1,4.5c-0.2,0.7-0.9,1.7-1.5,1.8c-1.2,0.3-1.3-0.9-1.6-1.9c-0.9-3.2-3.6-4.8-6.6-4.2
	c-4.4,0.9-6.2,4.4-4.4,8.5C214.5,130.6,219.1,134.9,224.4,138.9z"/>
<path class="st0" d="M231.6,117.6c2.8-0.1,5.1,2.1,5.1,4.4c0,0.5-0.6,1.1-1,1.6c-0.5-0.4-1.2-0.8-1.3-1.3c-0.2-1.3-1.2-2.3-2.5-2.5
	c-0.5-0.2-0.9-0.7-1.1-1.2C230.7,118.2,231.4,117.8,231.6,117.6z"/>
<path class="st0" d="M103.1,223.1c4-3.7,8.8-4.2,13.8-4c4.7,0.1,9.4,0,14.1,0c0.5-0.1,1.1-0.1,1.6,0.1c2,1.1,3.1-0.1,4.3-1.4
	c1.4-1.5,2.8-2.8,4.2-4.2c2.4-2.3,3.9-2.6,6.8-0.9c1.8-1.9,3.9-3,6.6-2c2.7,0.9,4.2,3.9,3.2,6.6c-0.2,0.7-0.6,1.4-1.2,1.9
	c-5.9,6-11.9,12-18,17.9c-2.9,2.8-6.6,3.8-10.7,3.7c-6.2-0.1-12.3,0.2-18.5,0.3c-1.2,0-2.3,0.2-3.5,0.1c-1.8,0-3.2,0.1-4.5,1.7
	c-1.7,2-9.5,1.9-11.2-0.1c-0.9-0.9-1.4-2.1-1.5-3.4c-0.2-5.2-0.2-10.4,0-15.7c0.1-3,2-4.7,5-4.8c1.4,0,2.8,0,4.2,0
	C100.7,219.1,102,220,103.1,223.1z M103.1,238.9h2.2c7.5-0.1,14.9-0.4,22.4-0.4c3.9,0.2,7.7-1.3,10.5-4.1c4.4-4.4,8.8-8.8,13.2-13.2
	c1.2-1.2,2.4-2.3,3.4-3.5c0.9-1,1-2.5,0.2-3.6c-0.7-1.2-2.1-1.7-3.4-1.2c-0.8,0.3-1.5,0.8-2,1.4c-4.5,4.5-8.9,9-13.5,13.5
	c-1,1-2.2,1.7-3.6,1.9c-4.8,0.2-9.5,0.1-14.3,0c-0.5,0-1-0.7-1.5-1.1c0.4-0.4,0.9-0.9,1.4-1.2c0.3-0.2,0.8,0,1.2,0
	c4.1,0,8.2,0.1,12.3,0.1c1.5,0.1,2.9-1,3-2.5c0-0.1,0-0.3,0-0.4c0-1.6-1.3-2.8-2.8-2.8c-0.1,0-0.1,0-0.2,0c-6.5,0-13.1-0.1-19.6,0
	c-3.4,0.2-6.6,1.7-8.7,4.4c-0.3,0.3-0.4,0.7-0.5,1.1C103.1,230.9,103.1,234.8,103.1,238.9L103.1,238.9z M90.9,231.5c0,2.5,0,5,0,7.6
	c0,2,0.8,2.8,2.8,2.9c1.4,0,2.8,0,4.2,0c1.8-0.1,2.7-0.8,2.7-2.6c0.1-5.2,0-10.3,0-15.5c0.1-1.2-0.8-2.4-2-2.5c-0.2,0-0.4,0-0.5,0
	c-1.4,0-2.8,0-4.2,0c-2.1,0-2.9,0.8-2.9,2.9C90.9,226.7,90.9,229.1,90.9,231.5z M145.7,214.3c-0.9-0.7-1.8-0.3-2.6,0.5l-5.6,5.6
	c-1.1,1.1-1.1,1.1-0.2,2.5L145.7,214.3z"/>
<path class="st0" d="M124.1,187.3c3.2-4.3,7.6-5.3,11.9-2.9c3.4,2,5,5.6,3.5,9.3c-0.9,2.5-2.2,4.9-3.9,7c-3.2,3.4-6.6,6.7-10.1,9.7
	c-0.7,0.5-1.5,0.6-2.3,0.4c-6.1-4.2-11.4-9.3-14.2-16.4c-1.4-3.5-0.1-7.4,3-9.5c3-2.2,7.2-2.2,10.1,0.2
	C122.8,185.8,123.5,186.5,124.1,187.3z M124.1,208.6c1.7-1.4,3.3-2.7,4.8-4.1c3.4-3.2,6.5-6.6,8.2-11.1c0.4-1.1,0.6-2.2,0.4-3.4
	c-0.4-2.6-2.9-4.4-5.8-4.5c-3.2-0.1-5.1,1.3-6.2,4.4c-0.2,0.7-0.9,1.7-1.5,1.8c-1.2,0.3-1.3-1-1.6-1.9c-0.9-3.2-3.6-4.8-6.6-4.2
	c-4.4,0.9-6.2,4.4-4.4,8.5C114.1,200.3,118.8,204.6,124.1,208.6z"/>
<path class="st0" d="M131.2,187.3c2.8-0.1,5.1,2.1,5.1,4.4c0,0.5-0.6,1.1-1,1.6c-0.5-0.4-1.2-0.8-1.3-1.3c-0.2-1.3-1.2-2.3-2.5-2.5
	c-0.5-0.2-0.9-0.7-1.1-1.2C130.4,187.9,131.1,187.5,131.2,187.3z"/>
</svg>
