<?xml version="1.0" encoding="utf-8"?>
<!-- Generator: Adobe Illustrator 26.0.0, SVG Export Plug-In . SVG Version: 6.00 Build 0)  -->
<svg version="1.1" id="Capa_1" xmlns="http://www.w3.org/2000/svg" xmlns:xlink="http://www.w3.org/1999/xlink" x="0px" y="0px"
	 viewBox="0 0 300 300" style="enable-background:new 0 0 300 300;" xml:space="preserve">
<style type="text/css">
	.st0{fill:#41316B;}
</style>
<path class="st0" d="M192.2,76.4c0.2,0.2,0.3,0.4,0.4,0.5l7.8,9.9c0.7,0.9,0.7,1.4-0.2,2c-1.4,1-2.7,1.9-4.1,2.8
	c-1.6,1.2-3.9,1.3-5.6,0.1c-0.3-0.2-0.6-0.5-0.9-0.8c-3.3-4-6.7-8-10.1-12.1c-0.3-0.3-0.7-0.5-1.1-0.4c-1.1,0.2-2.3,0.3-3.4,0.2
	c-2.2-0.2-4.1-1.4-5.2-3.3c-2.1-3.1-2.6-7-1.5-10.5c0.6-2.3,2.4-4.2,4.7-4.9c1.1-0.3,2.1-0.5,3.2-0.6c4.4-0.6,8.8-1.2,13.1-1.9
	c3-0.4,5.9-1.3,8.6-2.5c3.5-1.5,6.4-4.3,8-7.8c0.4-0.8,0.7-1.6,1.2-2.3c0.5-1.1,1.6-1.9,2.8-2.2c2.1-0.4,4,1,4.4,3c0,0,0,0,0,0.1
	c0.4,2.8,0.8,5.7,1.2,8.5c1.3,8.5,2.5,17.1,3.8,25.6c0.4,2.3-0.8,4.2-2.8,4.7c-1.3,0.3-2.6-0.1-3.5-1c-0.4-0.4-0.8-0.8-1.1-1.2
	c-3.3-4.2-8.5-6.5-13.8-6.2c-1.8,0-3.5,0.2-5.3,0.2C192.5,76.3,192.4,76.3,192.2,76.4z M194.8,74c1.6,0,3.2-0.1,4.8,0
	c4,0.1,7.9,1.5,11,4.2c1.1,1,2.1,2.2,3.2,3.2c0.3,0.3,0.6,0.6,0.9,0.8c0.5,0.4,1.2,0.4,1.7,0c0.6-0.3,0.9-1,0.8-1.7
	c-1.7-11.4-3.4-22.8-5-34.3c0-0.8-0.6-1.4-1.4-1.6c-0.7-0.2-1.5,0.2-1.8,0.9c-0.3,0.5-0.5,0.9-0.7,1.4c-1.3,3.2-3.5,6-6.4,8
	c-2.2,1.5-4.7,2.6-7.2,3.3l-2.1,0.6C193.3,63.9,194,68.9,194.8,74z M190.5,59.4c-0.1,0-0.3,0-0.4,0c-5.1,0.7-10.2,1.5-15.3,2.2
	c-2.3,0.2-4.2,1.8-4.6,4.1c-0.8,2.8-0.3,5.9,1.3,8.4c1.1,1.9,3.3,2.9,5.5,2.5l13.1-2c0.9-0.1,1.8-0.2,2.7-0.4
	C191.9,69.2,191.2,64.3,190.5,59.4z M181.5,78c0.2,0.2,0.3,0.4,0.4,0.5l9,10.9c0.7,1,2,1.4,3.1,0.8c1.4-0.8,2.8-1.7,4.2-2.6
	l-0.2-0.3c-2.7-3.4-5.3-6.8-8-10.2c-0.2-0.2-0.5-0.3-0.8-0.2l-4.1,0.6L181.5,78z"/>
<path class="st0" d="M271.8,83.5c-0.1,0.3-0.2,0.6-0.3,0.9c-3.3,7.6-6.5,15.1-9.8,22.7c-0.4,1.2-1.7,1.9-2.9,1.5
	c-0.1,0-0.3-0.1-0.4-0.2l-22.8-9.8c-1.2-0.4-1.8-1.7-1.4-2.9c0-0.1,0.1-0.2,0.1-0.3c3.3-7.6,6.6-15.3,9.9-22.9
	c0.4-1.2,1.7-1.8,2.9-1.4c0.1,0,0.1,0.1,0.2,0.1l23,9.9C271.3,81.6,271.9,82.6,271.8,83.5z M269.7,83.4c-0.2-0.1-0.3-0.2-0.5-0.3
	L247,73.4c-0.5-0.2-0.7-0.1-0.9,0.3c-3.2,7.4-6.4,14.9-9.6,22.3c-0.2,0.4-0.1,0.6,0.3,0.8c7.5,3.2,14.9,6.4,22.4,9.7
	c0.5,0.2,0.6,0,0.7-0.3c3.2-7.5,6.4-14.9,9.6-22.3C269.6,83.7,269.6,83.6,269.7,83.4z"/>
<path class="st0" d="M214.5,17.6c0.2,4.1,0.5,8.2,0.7,12.3c0.1,1.2-0.8,2.3-2,2.5c0,0-0.1,0-0.1,0c-3.6,0.2-7.2,0.4-10.8,0.6
	l-13.5,0.8c-0.3,0-0.6,0-0.9,0c-1.2,0.1-2.3-0.9-2.3-2.1c-0.2-2.4-0.3-4.7-0.4-7.1c-0.3-5.8-0.7-11.6-1-17.4c0-0.2,0-0.5,0-0.7
	c-0.1-1.3,0.9-2.3,2.1-2.4c0,0,0.1,0,0.1,0L198,3.4l13-0.7c1.3-0.2,2.5,0.6,2.8,1.9c0,0.2,0,0.4,0,0.6
	C214,9.3,214.2,13.4,214.5,17.6L214.5,17.6z M198.3,31.1c6-0.3,10-0.6,14.1-0.8c0.5,0,0.6-0.2,0.6-0.7c-0.1-1.5-0.2-3.1-0.3-4.7
	c-0.4-6.6-0.7-13.1-1.1-19.7c0-0.4-0.2-0.5-0.5-0.5c-8.1,0.5-16.2,0.9-24.3,1.4c-0.6,0-0.7,0.2-0.6,0.7c0.2,3.1,0.4,6.2,0.5,9.4
	c0.3,4.9,0.6,9.8,0.8,14.7c0,0.8,0.1,0.8,0.9,0.7L198.3,31.1z"/>
<path class="st0" d="M271.4,24.2c-0.1,0.3-0.1,0.6-0.2,0.9c-2.5,7.8-5,15.6-7.5,23.4c-0.2,1.3-1.4,2.1-2.7,1.9
	c-0.2,0-0.4-0.1-0.6-0.2l-23.6-7.6c-1.2-0.3-1.9-1.5-1.6-2.7c0-0.1,0.1-0.2,0.1-0.3c2.5-7.9,5.1-15.9,7.6-23.8
	c0.3-1.2,1.6-1.9,2.8-1.6c0.1,0,0.2,0.1,0.3,0.1l21.2,6.8c0.9,0.3,1.7,0.5,2.6,0.8C270.8,22.3,271.4,23.2,271.4,24.2z M269.3,24.2
	c-0.2-0.1-0.3-0.2-0.5-0.3c-7.7-2.5-15.4-4.9-23.1-7.4c-0.6-0.2-0.7,0-0.9,0.5c-2.4,7.6-4.9,15.3-7.4,22.9c-0.2,0.5-0.1,0.7,0.5,0.9
	c7.7,2.4,15.4,4.9,23,7.4c0.5,0.1,0.6,0.1,0.8-0.4c2.5-7.7,4.9-15.4,7.4-23.1L269.3,24.2z"/>
<path class="st0" d="M237.5,62.7c0,4.9-1.8,9.6-5.1,13.1c-0.2,0.2-0.4,0.4-0.6,0.5c-0.4,0.2-0.9,0.1-1.2-0.2
	c-0.3-0.3-0.4-0.8-0.2-1.2c0.1-0.2,0.2-0.3,0.4-0.5c6.5-7.3,5.9-18.5-1.3-25c-0.8-0.7-1.7-1.4-2.7-2l-0.3-0.2
	c-0.6-0.2-0.8-0.8-0.6-1.4c0.2-0.6,0.8-0.8,1.4-0.6c0.1,0,0.2,0.1,0.3,0.2c1.7,1,3.3,2.2,4.6,3.7C235.6,52.8,237.5,57.7,237.5,62.7z
	"/>
<path class="st0" d="M228.5,62.2c-0.1,3.3-1.3,6.5-3.6,9c-0.3,0.4-0.9,0.5-1.4,0.2c0,0-0.1-0.1-0.1-0.1c-0.4-0.3-0.5-1-0.2-1.4
	c0-0.1,0.1-0.1,0.1-0.1c1.2-1.3,2-2.8,2.6-4.5c1.3-4.2,0-7.7-3.1-10.7c-0.6-0.5-1.2-1-1.8-1.4c-0.7-0.5-0.9-1.1-0.5-1.6
	c0.3-0.5,1-0.6,1.5-0.3c0,0,0.1,0.1,0.1,0.1c3.2,1.9,5.4,5,6.2,8.6c0.1,0.3,0.1,0.7,0.1,1S228.5,61.8,228.5,62.2z"/>
<path class="st0" d="M174.9,67.1c-0.6,0.1-1.1-0.4-1.1-1c0,0,0,0,0,0c-0.1-0.5,0.3-1.1,0.8-1.1c0.1,0,0.1,0,0.2,0
	c1.3-0.2,2.5-0.4,3.8-0.6l3.6-0.5c0.8-0.1,1.3,0.2,1.4,0.9s-0.4,1.1-1.1,1.2l-7.1,1.1L174.9,67.1z"/>
<path class="st0" d="M175.6,72.2c-0.6,0-1.1-0.4-1.1-1c0-0.6,0.4-1.1,1-1.1c1.2-0.2,2.4-0.4,3.6-0.5L183,69c0.6-0.1,1.2,0.2,1.3,0.8
	c0,0,0,0,0,0.1c0.1,0.5-0.2,1.1-0.8,1.2c-0.1,0-0.1,0-0.2,0c-2.5,0.4-5,0.7-7.4,1.1L175.6,72.2z"/>
<path class="st0" d="M249.5,82.4c0.4,0.1,0.7,0.2,1.1,0.3c2.9,1.3,5.8,2.5,8.8,3.8c1.4,0.5,2.2,2,1.7,3.5c-0.1,0.2-0.1,0.3-0.2,0.5
	c-0.6,1.4-1.2,2.9-1.9,4.3c-0.5,1.4-2.1,2.2-3.5,1.7c-0.1,0-0.3-0.1-0.4-0.2c-2.9-1.3-5.9-2.5-8.8-3.8c-1.4-0.5-2.2-2-1.7-3.5
	c0-0.1,0.1-0.2,0.1-0.3c0.6-1.5,1.3-3.1,2-4.6C247.3,83.1,248.3,82.4,249.5,82.4z M255.4,90.6l-3.2-4l-1.9,4.4L255.4,90.6z"/>
<path class="st0" d="M199.6,18.4l-0.2-2.9l2.4-0.2c0-0.8,0-1.5,0-2.2c0.1-1.1,0.6-2.2,1.4-3c0.6-0.7,1.5-1.1,2.4-1.1l2.4-0.1
	l0.2,2.8c-1,0.2-2.1,0.2-2.6,1.2c-0.4,0.7-0.5,1.5-0.3,2.3l2.2-0.1l0.2,2.9l-2.2,0.1l0.5,8.7l-3.4,0.2l-0.5-8.7L199.6,18.4z"/>
<path class="st0" d="M248.9,25.3c0.8,2.5,2.7,3.9,4.9,4.9c0.1-0.2,0.1-0.3,0.2-0.4c0.3-1.2,1.3-2.1,2.6-2.3c1.2-0.2,2.4,0.3,3.1,1.3
	c0.2,0.3,0.5,0.5,0.8,0.4c0.5-0.1,1-0.1,1.5,0l-1.5,1.1h1.3l0,0.2c-0.4,0.3-0.8,0.5-1.3,0.7c-0.3,0.1-0.5,0.3-0.6,0.6
	c-1.5,4.6-6.5,7.2-11.1,5.6c-1.3-0.4-2.5-1.2-3.5-2.2l-0.3-0.4c0.7,0.2,1.5,0.3,2.2,0.3c0.7,0,1.5-0.1,2.2-0.3
	c-1.1-0.6-1.8-1.7-1.9-2.9l1,0.2c-1.1-0.8-1.5-2.3-1.1-3.6l0.9,0.6C247.4,28.1,247.7,26.3,248.9,25.3z"/>
<path class="st0" d="M65.1,119.8c0.2,0.2,0.3,0.4,0.4,0.5l7.8,9.8c0.7,0.9,0.7,1.4-0.3,2c-1.3,1-2.7,1.9-4.1,2.8
	c-1.6,1.2-3.9,1.3-5.6,0.1c-0.3-0.2-0.6-0.5-0.9-0.8c-3.4-4-6.7-8-10.1-12.1c-0.2-0.4-0.7-0.5-1.1-0.4c-1.1,0.2-2.3,0.2-3.4,0.2
	c-2.2-0.2-4.1-1.4-5.2-3.3c-2.1-3.1-2.6-6.9-1.5-10.5c0.6-2.3,2.4-4.2,4.7-4.9c1.1-0.3,2.1-0.5,3.2-0.6c4.4-0.6,8.8-1.2,13.1-1.9
	c3-0.4,5.9-1.3,8.6-2.5c3.5-1.5,6.4-4.3,8-7.8c0.4-0.8,0.7-1.6,1.2-2.3c0.5-1.1,1.6-1.9,2.8-2.2c2.1-0.4,4,1,4.4,3.1
	c0,0,0,0.1,0,0.1c0.4,2.8,0.8,5.7,1.2,8.5c1.3,8.5,2.5,17.1,3.8,25.6c0.3,2.3-0.8,4.2-2.8,4.7c-1.3,0.3-2.6-0.1-3.5-1
	c-0.4-0.4-0.8-0.8-1.2-1.2c-3.3-4.2-8.4-6.5-13.8-6.2c-1.8,0-3.5,0.2-5.3,0.3C65.4,119.8,65.2,119.8,65.1,119.8z M67.7,117.5
	c1.7,0,3.2-0.1,4.8,0c4,0.1,7.9,1.6,11,4.1c1.1,1,2.2,2.2,3.2,3.2c0.3,0.3,0.6,0.6,0.9,0.8c0.5,0.4,1.2,0.4,1.7,0
	c0.6-0.3,0.9-1,0.8-1.7c-1.7-11.4-3.4-22.8-5-34.3c-0.1-0.8-0.7-1.4-1.4-1.5c-0.7-0.2-1.5,0.2-1.8,0.9c-0.3,0.5-0.5,0.9-0.7,1.4
	c-1.3,3.2-3.5,6-6.3,8c-2.2,1.5-4.7,2.6-7.2,3.3c-0.7,0.2-1.4,0.4-2.1,0.6C66.2,107.4,66.9,112.4,67.7,117.5z M63.3,102.8
	c-0.1,0-0.3,0-0.4,0L47.7,105c-2.3,0.2-4.2,1.8-4.6,4.1c-0.8,2.8-0.3,5.9,1.3,8.4c1.1,1.9,3.3,2.9,5.5,2.5l13.1-2
	c0.9-0.1,1.8-0.2,2.7-0.4C64.8,112.6,64.1,107.7,63.3,102.8z M54.4,121.5l0.4,0.5c3,3.6,6,7.3,9.1,10.9c0.7,1,2,1.3,3.1,0.8
	c1.4-0.8,2.8-1.7,4.2-2.6c-0.1-0.1-0.1-0.2-0.2-0.3l-8-10.2c-0.2-0.2-0.5-0.3-0.8-0.2l-4.1,0.6L54.4,121.5z"/>
<path class="st0" d="M144.7,127c-0.1,0.3-0.2,0.6-0.3,0.9c-3.3,7.6-6.5,15.1-9.8,22.7c-0.4,1.2-1.7,1.9-2.9,1.5
	c-0.1,0-0.3-0.1-0.4-0.2l-22.8-9.9c-1.2-0.4-1.8-1.7-1.4-2.9c0-0.1,0.1-0.2,0.1-0.3c3.3-7.6,6.6-15.3,9.9-22.9
	c0.4-1.2,1.7-1.8,2.9-1.4c0.1,0,0.1,0.1,0.2,0.1c7.7,3.3,15.3,6.6,23,9.9C144.2,125.1,144.8,126,144.7,127z M142.6,126.8
	c-0.2-0.1-0.3-0.2-0.5-0.3c-7.4-3.2-14.9-6.4-22.3-9.6c-0.5-0.2-0.7-0.1-0.9,0.4c-3.2,7.4-6.4,14.9-9.6,22.3
	c-0.2,0.4-0.1,0.6,0.3,0.8c7.5,3.2,14.9,6.4,22.4,9.7c0.4,0.2,0.6,0,0.7-0.3c3.2-7.4,6.4-14.9,9.6-22.3L142.6,126.8z"/>
<path class="st0" d="M87.3,61c0.2,4.1,0.5,8.2,0.7,12.3c0.1,1.2-0.8,2.3-2,2.5c-0.1,0-0.1,0-0.2,0c-3.6,0.2-7.2,0.4-10.8,0.6
	l-13.5,0.7h-0.9c-1.2,0.1-2.2-0.8-2.3-2c-0.2-2.4-0.3-4.7-0.4-7.1l-1-17.5V50c-0.1-1.3,0.9-2.3,2.1-2.4c0,0,0.1,0,0.1,0
	c3.9-0.2,7.8-0.4,11.6-0.7l13-0.7c1.3-0.2,2.5,0.6,2.7,1.9c0,0.2,0,0.4,0,0.6C86.8,52.8,87.1,56.9,87.3,61L87.3,61z M71.2,74.5
	c6-0.3,10-0.6,14.1-0.8c0.5,0,0.6-0.2,0.6-0.7c-0.1-1.6-0.2-3.1-0.3-4.7c-0.4-6.5-0.7-13.1-1.1-19.7c0-0.4-0.2-0.5-0.6-0.5
	c-8.1,0.5-16.2,0.9-24.3,1.4c-0.6,0-0.7,0.2-0.6,0.7c0.2,3.1,0.4,6.2,0.5,9.3c0.3,4.9,0.5,9.8,0.8,14.7c0,0.8,0,0.8,0.8,0.7
	L71.2,74.5z"/>
<path class="st0" d="M144.3,67.6c-0.1,0.3-0.1,0.6-0.2,0.9c-2.5,7.8-5,15.6-7.5,23.4c-0.2,1.3-1.4,2.1-2.7,1.9
	c-0.2,0-0.4-0.1-0.5-0.2l-23.6-7.6c-1.2-0.3-2-1.5-1.7-2.7c0-0.1,0-0.2,0.1-0.3c2.5-7.9,5.1-15.8,7.6-23.8c0.3-1.2,1.6-1.9,2.8-1.6
	c0.1,0,0.2,0.1,0.3,0.1l21.2,6.8c0.9,0.3,1.7,0.5,2.6,0.8C143.7,65.7,144.3,66.6,144.3,67.6z M142.1,67.6c-0.2-0.1-0.3-0.2-0.5-0.3
	c-7.7-2.5-15.4-4.9-23.1-7.4c-0.6-0.2-0.7,0-0.9,0.5c-2.4,7.6-4.9,15.3-7.4,22.9c-0.2,0.5-0.1,0.7,0.5,0.9c7.7,2.4,15.4,4.9,23,7.4
	c0.4,0.1,0.6,0.1,0.8-0.4c2.5-7.7,4.9-15.4,7.4-23.2L142.1,67.6z"/>
<path class="st0" d="M110.4,106.2c0,4.9-1.8,9.6-5.1,13.1c-0.2,0.2-0.4,0.4-0.6,0.5c-0.4,0.2-0.9,0.1-1.2-0.2
	c-0.3-0.3-0.4-0.8-0.2-1.2c0.1-0.2,0.2-0.3,0.4-0.5c6.5-7.3,5.9-18.5-1.3-25c-0.8-0.7-1.7-1.4-2.7-2l-0.3-0.2
	c-0.5-0.3-0.7-0.9-0.5-1.4c0,0,0,0,0,0c0.2-0.5,0.8-0.7,1.3-0.5c0.1,0,0.1,0.1,0.2,0.1c1.7,1,3.3,2.2,4.6,3.7
	C108.5,96.3,110.4,101.2,110.4,106.2z"/>
<path class="st0" d="M101.4,105.6c-0.1,3.3-1.4,6.5-3.6,9c-0.3,0.4-1,0.5-1.4,0.2c0,0-0.1,0-0.1-0.1c-0.4-0.3-0.5-1-0.2-1.4
	c0-0.1,0.1-0.1,0.1-0.1c1.2-1.3,2-2.8,2.6-4.5c1.3-4.2,0.1-7.7-3.1-10.6c-0.6-0.5-1.2-1-1.8-1.4c-0.7-0.5-0.8-1.1-0.5-1.6
	c0.4-0.5,1-0.6,1.5-0.2c0,0,0,0,0.1,0.1c3.2,1.9,5.4,5,6.2,8.6c0.1,0.3,0.1,0.7,0.2,1C101.4,104.9,101.4,105.3,101.4,105.6z"/>
<path class="st0" d="M47.8,110.6c-0.6,0.1-1.1-0.3-1.2-0.9c-0.1-0.6,0.3-1.1,0.9-1.2c0,0,0.1,0,0.1,0c1.3-0.2,2.5-0.4,3.8-0.6
	l3.6-0.5c0.6-0.2,1.2,0.2,1.4,0.8c0,0,0,0.1,0,0.1c0.1,0.6-0.3,1.1-1.1,1.2l-7.1,1.1L47.8,110.6z"/>
<path class="st0" d="M48.5,115.7c-0.6,0-1.1-0.4-1.1-1c0-0.6,0.4-1.1,1-1.1c1.2-0.2,2.4-0.4,3.6-0.5l3.9-0.6
	c0.6-0.1,1.2,0.2,1.3,0.8c0,0,0,0,0,0.1c0.1,0.5-0.2,1.1-0.8,1.2c-0.1,0-0.1,0-0.2,0l-7.5,1.1L48.5,115.7z"/>
<path class="st0" d="M122.4,125.9c0.4,0.1,0.7,0.2,1.1,0.3c2.9,1.3,5.8,2.5,8.8,3.8c1.4,0.5,2.2,2,1.7,3.5c-0.1,0.2-0.1,0.3-0.2,0.5
	c-0.6,1.5-1.2,2.9-1.9,4.4c-0.5,1.4-2.1,2.2-3.5,1.7c-0.1,0-0.3-0.1-0.4-0.2l-8.8-3.8c-1.4-0.5-2.2-2.1-1.6-3.5
	c0-0.1,0.1-0.2,0.1-0.3c0.7-1.5,1.3-3.1,2-4.6C120.1,126.5,121.2,125.8,122.4,125.9z M128.2,134c-1.1-1.4-2.1-2.6-3.2-4l-1.9,4.4
	L128.2,134z"/>
<path class="st0" d="M72.5,61.9L72.3,59l2.4-0.2c0-0.8,0-1.5,0-2.2c0.1-1.1,0.6-2.2,1.4-3c0.6-0.7,1.5-1.1,2.4-1.1l2.4-0.2l0.2,2.8
	c-1,0.2-2.1,0.2-2.6,1.2c-0.4,0.7-0.5,1.5-0.3,2.3l2.2-0.1l0.2,2.9l-2.2,0.2l0.5,8.7l-3.4,0.2l-0.5-8.7L72.5,61.9z"/>
<path class="st0" d="M121.7,68.8c0.8,2.5,2.7,3.9,4.9,4.9c0.1-0.2,0.1-0.3,0.2-0.4c0.3-1.2,1.3-2.1,2.6-2.3c1.2-0.2,2.4,0.3,3.1,1.3
	c0.2,0.3,0.5,0.5,0.8,0.4c0.5,0,1,0,1.5,0l-1.5,1.1h1.3l0.1,0.2c-0.4,0.3-0.8,0.5-1.3,0.7c-0.3,0.1-0.5,0.3-0.6,0.7
	c-1.5,4.6-6.5,7.2-11.1,5.6c-1.3-0.4-2.6-1.2-3.6-2.2c-0.1-0.1-0.2-0.2-0.3-0.4c0.7,0.2,1.5,0.3,2.2,0.3c0.7,0,1.5-0.1,2.2-0.3
	c-1.1-0.6-1.8-1.7-1.8-2.9l1,0.2c-1.1-0.8-1.5-2.3-1.1-3.6l0.9,0.6C120.3,71.5,120.6,69.8,121.7,68.8z"/>
<path class="st0" d="M177.8,237.5c0.1,0.2,0.2,0.4,0.4,0.5l7.8,9.9c0.7,0.9,0.7,1.4-0.3,2c-1.3,1-2.7,1.9-4.1,2.8
	c-1.6,1.2-3.9,1.3-5.6,0.1c-0.3-0.2-0.6-0.5-0.9-0.8c-3.4-4-6.7-8-10.1-12.1c-0.2-0.4-0.7-0.5-1.1-0.4c-1.1,0.2-2.3,0.3-3.4,0.2
	c-2.2-0.2-4.1-1.4-5.2-3.3c-2.1-3.1-2.6-7-1.5-10.5c0.6-2.3,2.4-4.2,4.7-4.9c1.1-0.3,2.1-0.5,3.2-0.6c4.4-0.6,8.8-1.2,13.1-1.9
	c3-0.4,5.9-1.3,8.6-2.5c3.5-1.5,6.4-4.3,8-7.8c0.4-0.8,0.7-1.6,1.2-2.4c0.5-1.1,1.6-1.9,2.8-2.2c2.1-0.4,4,1,4.4,3c0,0,0,0.1,0,0.1
	c0.4,2.8,0.8,5.7,1.2,8.5c1.3,8.5,2.5,17.1,3.8,25.6c0.3,2.3-0.8,4.2-2.8,4.7c-1.3,0.3-2.6-0.1-3.5-1c-0.4-0.4-0.8-0.8-1.2-1.2
	c-3.3-4.2-8.4-6.5-13.8-6.3c-1.8,0-3.5,0.2-5.3,0.3L177.8,237.5z M180.4,235.2c1.6,0,3.2-0.1,4.8,0c4,0.1,7.9,1.5,11,4.1
	c1.1,1,2.2,2.1,3.2,3.2c0.3,0.3,0.6,0.6,0.9,0.8c0.5,0.4,1.2,0.4,1.7,0c0.6-0.3,0.9-1,0.8-1.7c-1.7-11.4-3.4-22.8-5-34.3
	c0-0.8-0.6-1.4-1.4-1.6c-0.7-0.2-1.5,0.2-1.8,0.9c-0.3,0.5-0.5,0.9-0.7,1.4c-1.3,3.2-3.5,6-6.4,8c-2.2,1.5-4.7,2.6-7.2,3.3l-2.1,0.6
	C178.9,225.1,179.7,230.1,180.4,235.2L180.4,235.2z M176.1,220.5c-0.1,0-0.3,0-0.4,0c-5.1,0.7-10.2,1.5-15.3,2.2
	c-2.3,0.2-4.2,1.8-4.6,4.1c-0.8,2.8-0.3,5.9,1.3,8.4c1.1,1.9,3.3,2.9,5.5,2.5l13.1-2l2.7-0.4C177.6,230.3,176.8,225.4,176.1,220.5
	L176.1,220.5z M167.2,239.2c0.2,0.2,0.3,0.4,0.4,0.5l9.1,10.9c0.7,1,2,1.4,3.1,0.8c1.4-0.8,2.8-1.7,4.1-2.6
	c-0.1-0.1-0.1-0.2-0.2-0.3c-2.7-3.4-5.3-6.8-8-10.2c-0.2-0.2-0.5-0.3-0.8-0.2l-4.1,0.6L167.2,239.2z"/>
<path class="st0" d="M257.5,244.7c-0.1,0.3-0.2,0.6-0.3,0.9c-3.3,7.6-6.5,15.1-9.8,22.7c-0.4,1.2-1.7,1.9-2.9,1.5
	c-0.1,0-0.3-0.1-0.4-0.2l-22.8-9.9c-1.2-0.4-1.8-1.7-1.4-2.9c0-0.1,0.1-0.2,0.1-0.3c3.3-7.6,6.6-15.3,9.9-22.9
	c0.4-1.2,1.7-1.8,2.9-1.4c0.1,0,0.1,0.1,0.2,0.1c7.7,3.3,15.3,6.6,23,9.9C257,242.8,257.5,243.7,257.5,244.7z M255.3,244.5
	c-0.2-0.1-0.3-0.2-0.5-0.3l-22.3-9.6c-0.5-0.2-0.7-0.1-0.9,0.4c-3.2,7.4-6.4,14.9-9.6,22.3c-0.2,0.4-0.1,0.6,0.3,0.8
	c7.5,3.2,14.9,6.4,22.4,9.7c0.4,0.2,0.6,0,0.7-0.3c3.2-7.4,6.4-14.9,9.6-22.3L255.3,244.5z"/>
<path class="st0" d="M200.1,178.8c0.2,4.1,0.5,8.2,0.7,12.3c0.1,1.2-0.8,2.3-2,2.5c-0.1,0-0.1,0-0.2,0c-3.6,0.2-7.2,0.4-10.8,0.6
	l-13.5,0.8c-0.3,0-0.6,0-0.9,0c-1.2,0.1-2.3-0.9-2.3-2.1c-0.2-2.4-0.3-4.7-0.4-7.1l-1-17.4v-0.7c-0.1-1.3,0.9-2.3,2.1-2.4
	c0,0,0.1,0,0.1,0l11.6-0.7l13-0.7c1.3-0.2,2.5,0.6,2.7,1.9c0,0.2,0,0.4,0,0.6C199.6,170.5,199.8,174.6,200.1,178.8L200.1,178.8z
	 M183.9,192.3c6-0.3,10.1-0.6,14.1-0.8c0.5,0,0.6-0.2,0.6-0.7c-0.1-1.6-0.2-3.1-0.3-4.7c-0.4-6.6-0.7-13.1-1.1-19.7
	c0-0.4-0.2-0.5-0.6-0.5c-8.1,0.5-16.2,0.9-24.3,1.4c-0.6,0-0.7,0.2-0.6,0.7c0.2,3.1,0.4,6.2,0.6,9.4c0.3,4.9,0.5,9.8,0.8,14.6
	c0,0.8,0.1,0.8,0.8,0.7L183.9,192.3z"/>
<path class="st0" d="M257,185.3c-0.1,0.3-0.1,0.6-0.2,0.9c-2.5,7.8-5,15.6-7.5,23.4c-0.2,1.3-1.4,2.1-2.7,1.9
	c-0.2,0-0.4-0.1-0.5-0.2l-23.6-7.6c-1.2-0.3-2-1.5-1.7-2.7c0-0.1,0.1-0.2,0.1-0.3c2.5-7.9,5.1-15.9,7.6-23.8
	c0.3-1.2,1.6-1.9,2.8-1.6c0.1,0,0.2,0.1,0.3,0.1l21.2,6.8c0.9,0.3,1.7,0.5,2.6,0.9C256.4,183.4,257,184.3,257,185.3z M254.9,185.3
	c-0.2-0.1-0.3-0.2-0.5-0.3c-7.7-2.5-15.4-5-23.1-7.4c-0.6-0.2-0.7,0-0.9,0.5c-2.5,7.6-4.9,15.3-7.4,22.9c-0.2,0.5-0.1,0.7,0.5,0.9
	c7.7,2.5,15.4,4.9,23,7.4c0.4,0.1,0.6,0.1,0.8-0.4c2.5-7.7,4.9-15.4,7.4-23.2C254.8,185.6,254.8,185.5,254.9,185.3L254.9,185.3z"/>
<path class="st0" d="M223.1,223.9c0,4.9-1.8,9.5-5.1,13.1c-0.2,0.2-0.4,0.4-0.6,0.5c-0.4,0.2-0.9,0.1-1.2-0.2
	c-0.3-0.3-0.4-0.8-0.2-1.2c0.1-0.2,0.2-0.3,0.4-0.5c6.5-7.3,6-18.5-1.3-25c-0.8-0.7-1.7-1.4-2.7-2l-0.3-0.2
	c-0.5-0.3-0.7-0.9-0.5-1.4c0,0,0,0,0,0c0.3-0.5,0.9-0.7,1.4-0.4c0,0,0,0,0.1,0c1.7,1,3.3,2.2,4.6,3.7
	C221.2,213.9,223.1,218.8,223.1,223.9z"/>
<path class="st0" d="M214.1,223.3c-0.1,3.3-1.4,6.5-3.6,9c-0.3,0.5-1,0.6-1.5,0.2c-0.5-0.3-0.6-1-0.2-1.5c0-0.1,0.1-0.1,0.1-0.1
	c1.2-1.3,2-2.8,2.6-4.5c1.3-4.2,0.1-7.7-3.1-10.6c-0.6-0.5-1.2-1-1.8-1.4c-0.6-0.5-0.9-1-0.5-1.6c0.4-0.5,1-0.6,1.5-0.3
	c0,0,0.1,0,0.1,0.1c3.2,1.9,5.4,5,6.2,8.6c0.1,0.3,0.1,0.7,0.1,1C214.1,222.6,214.1,223,214.1,223.3z"/>
<path class="st0" d="M160.5,228.3c-0.6,0.1-1.1-0.4-1.1-1c0,0,0,0,0,0c-0.1-0.5,0.3-1.1,0.8-1.1c0.1,0,0.1,0,0.2,0l3.8-0.6l3.6-0.5
	c0.8-0.1,1.3,0.2,1.4,0.9s-0.4,1.1-1.1,1.2l-7.1,1.1L160.5,228.3z"/>
<path class="st0" d="M161.2,233.4c-0.6,0-1.1-0.4-1.1-1s0.4-1.1,1-1.1l0,0l3.6-0.6l3.9-0.6c0.6-0.1,1.2,0.2,1.3,0.8c0,0,0,0,0,0.1
	c0.1,0.5-0.2,1.1-0.8,1.2c-0.1,0-0.1,0-0.2,0l-7.4,1.1L161.2,233.4z"/>
<path class="st0" d="M235.1,243.6c0.4,0.1,0.7,0.2,1.1,0.3l8.8,3.8c1.4,0.5,2.2,2,1.7,3.5c-0.1,0.2-0.1,0.3-0.2,0.5
	c-0.6,1.4-1.2,2.9-1.9,4.4c-0.5,1.4-2.1,2.2-3.5,1.7c-0.1,0-0.2-0.1-0.4-0.2l-8.8-3.8c-1.4-0.5-2.2-2.1-1.6-3.5
	c0-0.1,0.1-0.2,0.1-0.3c0.7-1.5,1.3-3.1,2-4.6C232.9,244.2,233.9,243.5,235.1,243.6z M241,251.7l-3.2-4l-1.9,4.4L241,251.7z"/>
<path class="st0" d="M185.2,179.6l-0.2-2.9l2.4-0.2c0-0.8-0.1-1.5,0-2.2c0.1-1.1,0.6-2.2,1.4-3c0.6-0.7,1.5-1.1,2.4-1.1l2.4-0.1
	l0.2,2.8c-1,0.2-2.1,0.2-2.6,1.2c-0.4,0.7-0.5,1.5-0.3,2.3l2.2-0.1l0.2,2.9l-2.2,0.1l0.5,8.7l-3.4,0.2l-0.5-8.7L185.2,179.6z"/>
<path class="st0" d="M234.5,186.5c0.8,2.5,2.7,3.9,4.9,4.9c0.1-0.1,0.1-0.3,0.2-0.4c0.3-1.2,1.3-2.1,2.6-2.3
	c1.2-0.2,2.4,0.3,3.1,1.3c0.2,0.3,0.5,0.5,0.8,0.4c0.5-0.1,1-0.1,1.5,0l-1.5,1.1h1.3l0.1,0.2c-0.4,0.3-0.8,0.5-1.3,0.7
	c-0.3,0.1-0.5,0.3-0.6,0.6c-1.5,4.6-6.5,7.2-11.1,5.6c-1.3-0.4-2.6-1.2-3.6-2.2c-0.1-0.1-0.2-0.2-0.3-0.4c0.7,0.2,1.5,0.3,2.2,0.3
	c0.7,0,1.5-0.1,2.2-0.3c-1.1-0.6-1.8-1.7-1.9-2.9l1,0.2c-1.1-0.8-1.5-2.3-1.1-3.6l0.9,0.6C233,189.2,233.3,187.5,234.5,186.5z"/>
</svg>
