<?xml version="1.0" encoding="utf-8"?>
<!-- Generator: Adobe Illustrator 26.0.0, SVG Export Plug-In . SVG Version: 6.00 Build 0)  -->
<svg version="1.1" id="Capa_1" xmlns="http://www.w3.org/2000/svg" xmlns:xlink="http://www.w3.org/1999/xlink" x="0px" y="0px"
	 viewBox="0 0 300 300" style="enable-background:new 0 0 300 300;" xml:space="preserve">
<style type="text/css">
	.st0{fill:#C97457;}
</style>
<path class="st0" d="M203.2,13.1c0.4-1.7,0.6-3.1,0.9-4.5c1.1-4.9,4.4-7.2,9.4-6.3s9.6,1.9,14.4,3s7,4.6,6.1,9.5
	c-0.3,1.4-0.6,2.8-0.9,4.5l3.1,0.6c6.4,1.3,12.8,2.6,19.2,4c4.1,0.7,6.9,4.6,6.2,8.8c0,0.1,0,0.2-0.1,0.3
	c-1.1,5.8-2.2,11.6-3.6,17.3c-0.6,1.9-1.7,3.5-3.2,4.7c-1.2,0.9-2.1,2.2-2.3,3.6c-1.7,8.3-3.4,16.5-5.1,24.8
	c-1.2,5.6-4.6,8-10.2,6.8c-21.8-4.5-43.7-9-65.5-13.5c-5.6-1.2-7.8-4.7-6.7-10.3c1.7-8.3,3.5-16.7,5.1-25c0.2-1.1-0.4-2.5-0.6-3.7
	c-0.4-2.1-1.3-4.2-1.1-6.2c0.9-5.6,2.1-11.2,3.4-16.8c1-4.7,4.9-7.1,9.6-6.1c6.3,1.3,12.6,2.6,18.9,3.9L203.2,13.1z M245.1,55.7
	l-27.8-5.7c-2.2,3.7-3.9,4.8-6.8,4.2s-4.3-2.2-4.9-6.5l-27.8-5.8L172.2,69l67.3,13.9L245.1,55.7z M254,31.6l-74.8-15.5l-3.6,17.2
	l31.5,6.5c1.5-4.1,1.5-4.1,5.8-3.2l1.9,0.4c4.3,0.9,4.3,0.9,4.1,5.2l31.6,6.5L254,31.6z M211.8,9.7l-1,4.7l14.9,3.1l1-4.7L211.8,9.7
	z M215,41l-3.7-0.8c-0.6,2.7-1.2,5.2-1.5,7.7c-0.1,0.8,0.9,1.6,1.4,2.4c0.8-0.6,1.9-1.1,2.2-1.8C214,46.2,214.4,43.7,215,41z"/>
<path class="st0" d="M87.5,78.5c-0.6-1.6-1-3-1.5-4.3c-1.5-4.8,0.2-8.5,4.9-10.2s9.2-3.2,13.9-4.7s8.3,0.4,10.1,5.1
	c0.5,1.3,0.9,2.7,1.5,4.3l3-1c6.2-2.1,12.3-4.2,18.5-6.3c3.9-1.5,8.3,0.5,9.8,4.4c0,0.1,0.1,0.2,0.1,0.3c2,5.5,4,11.1,5.6,16.8
	c0.5,1.9,0.3,3.9-0.4,5.8c-0.6,1.4-0.7,2.9-0.2,4.3c2.8,8,5.5,16,8.1,24c1.8,5.4,0,9.2-5.4,11.1c-21.1,7.1-42.2,14.3-63.3,21.4
	c-5.4,1.8-9.1-0.1-11-5.5c-2.8-8.1-5.4-16.2-8.3-24.2c-0.4-1.1-1.6-1.9-2.4-2.9c-1.4-1.6-3.3-3-4.1-4.8c-2.1-5.3-3.8-10.8-5.6-16.2
	c-1.5-4.5,0.6-8.5,5.2-10.1c6.1-2.1,12.2-4.1,18.3-6.2L87.5,78.5z M145.1,94.1l-26.9,9.1c0,4.3-1,6.1-3.8,7.1s-4.8,0.2-7.5-3.1
	l-26.9,9.1l8.9,26.2l65-22L145.1,94.1z M140.6,68.8L68.3,93.3l5.7,16.6l30.4-10.3c-0.8-4.3-0.8-4.3,3.4-5.7l1.8-0.6
	c4.2-1.4,4.2-1.4,6.1,2.4l30.5-10.4L140.6,68.8z M93.1,71.3l1.5,4.5L109,71l-1.5-4.5L93.1,71.3z M111.7,96.7l-3.6,1.2
	c0.9,2.6,1.6,5.1,2.6,7.4c0.3,0.7,1.6,0.9,2.4,1.4c0.3-0.9,1.1-1.9,1-2.7C113.6,101.6,112.6,99.3,111.7,96.7z"/>
</svg>
